<svg xmlns="http://www.w3.org/2000/svg" width="20" height="20" viewBox="0 0 20 20">
    <path fill="#FF8A5A" fill-rule="evenodd" d="M19.48 16.823c.346.382.52.833.52 1.354 0 .52-.174.955-.52 1.302-.348.347-.782.521-1.303.521-.52 0-.972-.174-1.354-.52L10 12.655 3.177 19.48c-.382.347-.816.521-1.302.521-.486 0-.92-.174-1.302-.52A1.687 1.687 0 0 1 0 18.176c0-.52.191-.972.573-1.354L7.343 10 .574 3.177A1.851 1.851 0 0 1 0 1.823C0 1.303.191.868.573.52.955.174 1.389 0 1.875 0c.486 0 .92.174 1.302.52L10 7.345 16.823.52C17.205.174 17.656 0 18.177 0c.52 0 .955.174 1.302.52.347.348.521.782.521 1.303 0 .52-.174.972-.52 1.354L12.655 10l6.823 6.823z"/>
</svg>
