<svg xmlns="http://www.w3.org/2000/svg" xmlns:xlink="http://www.w3.org/1999/xlink" width="30" height="42" viewBox="0 0 30 42">
    <defs>
        <path id="a" d="M2.888 1.002v4.21l-1.163-1.1a.932.932 0 0 0-1.266 0 .815.815 0 0 0 0 1.199l2.674 2.528c.026.025.058.034.086.054a.928.928 0 0 0 .53.192l.017.002h.017c.293 0 .55-.134.713-.34l2.578-2.436a.815.815 0 0 0 0-1.198.932.932 0 0 0-1.267 0L4.678 5.18V1.002c0-.468-.4-.848-.895-.848s-.895.38-.895.848z"/>
        <path id="c" d="M14.99.18h.029c.014 0 .027 0 .041.002a.791.791 0 0 1 .137.019c.019.003.038.006.058.011.06.018.118.04.175.072l.014.009L29.12 7.91l.009.006.009.004c.01.006.019.015.029.023.044.029.086.06.122.095a.909.909 0 0 1 .131.16c.01.016.02.03.028.046a.803.803 0 0 1 .074.18c.003.007.003.017.005.026.014.055.02.112.023.169 0 .01.003.018.003.026v9.886a.843.843 0 0 1-.433.736l-13.667 7.626c-.011.006-.022.007-.031.012a.84.84 0 0 1-.136.056c-.018.004-.035.01-.053.015a.813.813 0 0 1-.193.025h-.001a.847.847 0 0 1-.197-.024l-.049-.016a.98.98 0 0 1-.138-.055l-.03-.012L.914 19.268a.842.842 0 0 1-.435-.736V8.646c0-.008.004-.016.004-.026a.84.84 0 0 1 .023-.17l.004-.026a.867.867 0 0 1 .075-.18L.612 8.2a.788.788 0 0 1 .089-.116c.013-.015.026-.03.041-.044a.855.855 0 0 1 .126-.098c.01-.006.017-.015.027-.02.002-.003.006-.003.009-.005.002-.002.005-.005.009-.006L14.603.284l.013-.005a.844.844 0 0 1 .181-.072c.017-.005.034-.006.05-.01a.907.907 0 0 1 .143-.016zm.873 2.277v12.265l11.099-6.083-11.1-6.182zM3.07 8.64l11.1 6.082V2.458L3.07 8.64zm12.794 8.005l.017 8.078 11.98-6.684v-7.967l-11.997 6.573zM2.172 18.038l12.016 6.683-.018-8.075-11.998-6.574v7.966z"/>
        <path id="e" d="M.517.695a.792.792 0 1 0 .57-.241h-.002a.786.786 0 0 0-.568.241z"/>
        <path id="g" d="M.517.459a.793.793 0 1 0 .57-.242.79.79 0 0 0-.57.242z"/>
    </defs>
    <g fill="none" fill-rule="evenodd">
        <g transform="translate(11.25 5.234)">
            <mask id="b" fill="#fff">
                <use xlink:href="#a"/>
            </mask>
            <path fill="#9B9B9B" d="M-3.77 12.053h15.073V-3.812H-3.77z" mask="url(#b)" opacity=".4"/>
        </g>
        <g transform="translate(0 14.877)">
            <mask id="d" fill="#fff">
                <use xlink:href="#c"/>
            </mask>
            <path fill="#9B9B9B" d="M-3.487 30.968H33.52V-3.786H-3.488z" mask="url(#d)" opacity=".4"/>
        </g>
        <g transform="translate(13.929 2.555)">
            <mask id="f" fill="#fff">
                <use xlink:href="#e"/>
            </mask>
            <path fill="#9B9B9B" d="M-3.672 6.006h9.52v-9.52h-9.52z" mask="url(#f)" opacity=".4"/>
        </g>
        <g transform="translate(13.929 .412)">
            <mask id="h" fill="#fff">
                <use xlink:href="#g"/>
            </mask>
            <path fill="#9B9B9B" d="M-3.672 5.77h9.52v-9.52h-9.52z" mask="url(#h)" opacity=".4"/>
        </g>
    </g>
</svg>
