<svg xmlns="http://www.w3.org/2000/svg" width="31" height="35" viewBox="0 0 31 35">
    <g fill="#FFFFFF" fill-rule="evenodd">
        <path d="M28.104 12.265c1.049 0 1.9.86 1.9 1.923v9.995c0 1.059-.851 1.92-1.9 1.92h-.812v6.84a1.34 1.34 0 0 1-1.33 1.347H4.04a1.34 1.34 0 0 1-1.33-1.347v-6.84h-.812A1.91 1.91 0 0 1 0 24.18v-9.992a1.91 1.91 0 0 1 1.898-1.923h.813V1.345A1.34 1.34 0 0 1 4.04 0h16.053c.052 0 .103.01.152.02.014.003.023.008.037.012a.629.629 0 0 1 .13.056c.015.007.028.016.044.026a.595.595 0 0 1 .136.116l6.532 7.553a.654.654 0 0 1 .159.435c.003.025.007.05.007.075v3.972h.813zM2.956 15.158v8.417h3.63c.645 0 1.205-.108 1.68-.325a3.342 3.342 0 0 0 1.191-.89c.318-.377.556-.825.713-1.343a5.83 5.83 0 0 0 .236-1.698c0-.699-.096-1.308-.289-1.827a3.591 3.591 0 0 0-.801-1.296 3.288 3.288 0 0 0-1.214-.778 4.334 4.334 0 0 0-1.515-.26h-3.63zm8.37 4.244c0 .613.094 1.184.282 1.715.189.53.46.992.814 1.385.353.393.787.701 1.302.925.515.224 1.094.336 1.739.336.652 0 1.234-.112 1.744-.336.511-.224.943-.532 1.297-.925s.625-.855.813-1.385c.189-.53.283-1.102.283-1.715 0-.629-.094-1.212-.283-1.75a4.205 4.205 0 0 0-.813-1.41 3.732 3.732 0 0 0-1.297-.942c-.51-.228-1.092-.342-1.744-.342-.645 0-1.224.114-1.739.342a3.719 3.719 0 0 0-1.302.943c-.354.4-.625.87-.814 1.408a5.259 5.259 0 0 0-.283 1.75zm15.146-1.415h1.792a3.392 3.392 0 0 0-.401-1.296 3.153 3.153 0 0 0-.807-.95 3.558 3.558 0 0 0-1.108-.583 4.24 4.24 0 0 0-1.315-.2c-.644 0-1.224.114-1.738.342a3.719 3.719 0 0 0-1.303.943c-.353.4-.625.87-.813 1.408a5.259 5.259 0 0 0-.283 1.75c0 .614.094 1.185.283 1.716.188.53.46.992.813 1.385.354.393.788.701 1.303.925.514.224 1.094.336 1.738.336.519 0 .994-.078 1.427-.236.432-.157.809-.385 1.131-.683.322-.299.582-.66.778-1.085.197-.424.318-.9.365-1.426h-1.791c-.07.566-.265 1.022-.584 1.367-.318.346-.76.519-1.326.519-.416 0-.77-.08-1.06-.242a2.024 2.024 0 0 1-.708-.642 2.787 2.787 0 0 1-.395-.902 4.284 4.284 0 0 1-.123-1.031c0-.37.04-.727.123-1.073a2.84 2.84 0 0 1 .395-.925c.18-.271.417-.487.707-.648.291-.161.645-.242 1.061-.242a1.924 1.924 0 0 1 1.214.424c.165.134.303.29.413.466.11.177.18.371.212.583zM4.04 32.58h21.92v-6.476H4.04v6.476zm0-31.233v10.921h21.922V8.897h-5.869a.67.67 0 0 1-.665-.674V1.346H4.039z"/>
        <path d="M4.807 22.019h1.65c.267 0 .527-.044.778-.13.252-.086.476-.23.672-.43.197-.2.354-.462.472-.784.117-.322.176-.715.176-1.179 0-.424-.04-.807-.123-1.15a2.293 2.293 0 0 0-.407-.877 1.804 1.804 0 0 0-.748-.56c-.31-.13-.694-.195-1.15-.195h-1.32v5.305zM13.176 19.402c0 .353.041.697.124 1.031.082.334.214.635.395.902.18.267.416.481.707.642.29.161.644.242 1.06.242.417 0 .77-.08 1.062-.242.29-.16.526-.375.707-.642.18-.267.312-.568.395-.902.082-.334.124-.678.124-1.031 0-.37-.042-.727-.124-1.073a2.84 2.84 0 0 0-.395-.925 2.003 2.003 0 0 0-.707-.648c-.291-.161-.645-.242-1.061-.242-.417 0-.77.08-1.061.242-.29.16-.527.377-.707.648a2.84 2.84 0 0 0-.395.925 4.605 4.605 0 0 0-.124 1.073z"/>
    </g>
</svg>
