<svg xmlns="http://www.w3.org/2000/svg" width="60" height="43" viewBox="0 0 60 43">
    <g fill="#FFFFFF" fill-rule="evenodd">
        <path d="M13.974 39.108h1.414c1.054 0 1.847-.283 2.376-.845.654-.704.982-1.677.982-2.929 0-1.331-.378-2.333-1.132-2.997-.568-.52-1.415-.777-2.544-.777h-1.096v7.548zm-2.844.719v-9.04c0-.544.154-.976.457-1.284.304-.312.729-.469 1.272-.469h2.676c1.61 0 2.926.382 3.954 1.15.754.556 1.322 1.3 1.708 2.229.386.93.579 1.902.579 2.921 0 1.198-.232 2.276-.7 3.23a5.284 5.284 0 0 1-2.022 2.243c-.883.54-1.919.81-3.112.81l-3.119-.034c-.532 0-.943-.156-1.243-.468-.3-.312-.45-.74-.45-1.288zM26.345 35.494c0 .674.11 1.324.337 1.945a3.43 3.43 0 0 0 1.054 1.521c.477.388 1.076.585 1.792.585.73 0 1.332-.194 1.806-.574.473-.384.819-.88 1.039-1.493a6.024 6.024 0 0 0 .323-1.984c0-.675-.114-1.314-.345-1.913-.231-.6-.584-1.084-1.069-1.446-.48-.363-1.079-.546-1.791-.546-.408 0-.808.094-1.2.27-.386.179-.72.42-.992.72-.639.708-.954 1.677-.954 2.915m-3.117-.018c0-.958.176-1.866.52-2.72a5.72 5.72 0 0 1 1.565-2.19c1.156-1.022 2.555-1.532 4.2-1.532.943 0 1.803.162 2.577.485a5.796 5.796 0 0 1 1.997 1.367 5.955 5.955 0 0 1 1.278 2.053 7.1 7.1 0 0 1 .444 2.537c0 1.008-.172 1.959-.514 2.853a5.748 5.748 0 0 1-1.582 2.278 5.651 5.651 0 0 1-1.917 1.12 6.764 6.764 0 0 1-2.265.373c-.877 0-1.71-.154-2.5-.463a5.788 5.788 0 0 1-2.063-1.367c-1.157-1.199-1.74-2.796-1.74-4.794M36.777 35.192c0-.868.153-1.686.456-2.44a5.73 5.73 0 0 1 1.297-1.97 5.802 5.802 0 0 1 1.997-1.295 6.85 6.85 0 0 1 2.516-.453c.497 0 1.033.061 1.618.187.584.122 1.091.327 1.519.617.427.287.642.66.642 1.116 0 .391-.095.71-.288.966-.197.254-.479.38-.847.38-.223 0-.588-.09-1.081-.276-.54-.212-1.034-.32-1.483-.32-.73 0-1.336.169-1.818.51a2.996 2.996 0 0 0-1.077 1.367c-.234.574-.35 1.22-.35 1.93 0 1.429.357 2.473 1.084 3.137.566.52 1.281.782 2.143.782.471 0 .858-.06 1.154-.186l.858-.392c.23-.09.416-.132.57-.132.39 0 .697.136.916.402.227.265.336.58.336.94 0 .542-.3.983-.895 1.327-.803.474-1.833.711-3.096.711a6.585 6.585 0 0 1-2.293-.41 5.836 5.836 0 0 1-1.943-1.198c-1.289-1.202-1.935-2.97-1.935-5.3M2.878 17.467h1.464c.618 0 1.096-.168 1.432-.5.315-.315.47-.736.47-1.265-.029-.49-.202-.88-.524-1.165-.322-.286-.73-.433-1.23-.433H2.878v3.363zm0 2.469v2.676c0 .447-.127.826-.376 1.13-.257.3-.604.453-1.052.453-.445 0-.796-.153-1.056-.457C.13 23.434 0 23.059 0 22.612v-9.269c0-.54.152-.96.46-1.268.31-.308.737-.461 1.29-.461h2.932c1.414 0 2.48.346 3.196 1.036.26.25.496.543.694.872.203.332.358.686.463 1.054.105.368.16.736.16 1.108 0 1.204-.323 2.18-.962 2.933-.73.88-1.79 1.319-3.175 1.319h-2.18zM13.974 21.688h1.414c1.054 0 1.847-.283 2.376-.846.654-.704.982-1.676.982-2.928 0-1.332-.378-2.334-1.132-2.998-.568-.519-1.415-.776-2.544-.776h-1.096v7.548zm-2.844.718v-9.04c0-.544.154-.976.457-1.284.304-.312.729-.468 1.272-.468h2.676c1.61 0 2.926.38 3.954 1.15.754.555 1.322 1.3 1.708 2.228.386.93.579 1.902.579 2.922 0 1.197-.232 2.275-.7 3.23a5.284 5.284 0 0 1-2.022 2.242c-.883.54-1.919.81-3.112.81l-3.119-.033c-.532 0-.943-.156-1.243-.468-.3-.312-.45-.74-.45-1.289zM26.562 14.158v2.47h2.532c.408 0 .748.113 1.013.335.269.225.405.532.405.93 0 .392-.14.703-.405.928-.268.222-.605.336-1.013.336h-2.532v3.455c0 .447-.122.826-.372 1.13-.251.3-.598.453-1.046.453-.44 0-.788-.153-1.042-.457-.262-.304-.39-.679-.39-1.126V13.34c0-.536.153-.958.458-1.265.304-.308.73-.461 1.275-.461h4.114c.405 0 .745.11 1.01.34.269.224.401.539.401.943 0 .386-.136.69-.408.918-.272.229-.605.343-1.003.343h-2.997zM56.262 3.697C52.232-.11 46.254-.573 41.69 2.127l.095-.688a1.27 1.27 0 0 0-1.093-1.43c-.684-.083-1.346.391-1.44 1.082l-.527 3.731a1.271 1.271 0 0 0 1.09 1.426l3.762.524a1.278 1.278 0 0 0 1.448-1.078 1.276 1.276 0 0 0-1.09-1.433l-.709-.098c3.569-1.982 8.158-1.574 11.27 1.365 2.633 2.489 3.613 6.32 2.49 9.755a1.265 1.265 0 0 0 1.218 1.653c.541 0 1.042-.34 1.218-.875 1.426-4.353.183-9.21-3.16-12.364M54.548 19.883l-3.763-.521c-.735-.087-1.35.39-1.449 1.078a1.272 1.272 0 0 0 1.09 1.433l.706.094c-3.57 1.979-8.159 1.574-11.267-1.36-2.633-2.493-3.613-6.324-2.49-9.758a1.265 1.265 0 0 0-.827-1.595 1.288 1.288 0 0 0-1.61.817c-1.422 4.353-.182 9.208 3.16 12.366a12.145 12.145 0 0 0 8.368 3.31c2.161 0 4.3-.614 6.206-1.743l-.095.687a1.268 1.268 0 0 0 1.269 1.44c.625 0 1.177-.456 1.265-1.093l.527-3.726a1.268 1.268 0 0 0-1.09-1.429"/>
        <path d="M46.47 12.692c-.07.074-.17.188-.304.333-.133.145-.307.33-.515.56a217.889 217.889 0 0 1-1.111 1.207 3.318 3.318 0 0 0-.36.414.755.755 0 0 0-.144.4c0 .259.07.457.215.592.177.17.455.255.844.255h3.803c.274 0 .496-.074.674-.216a.717.717 0 0 0 .27-.592c0-.255-.085-.456-.266-.602-.178-.145-.404-.216-.678-.216h-2.002c.56-.524 1.12-1.112 1.675-1.76.356-.425.627-.825.816-1.2.189-.379.281-.793.281-1.243 0-.347-.07-.666-.215-.963a2.28 2.28 0 0 0-.589-.762 2.743 2.743 0 0 0-.86-.499 3.069 3.069 0 0 0-1.015-.174c-.363 0-.715.068-1.056.202a3.074 3.074 0 0 0-.912.563c-.263.238-.474.52-.63.836a2.3 2.3 0 0 0-.23 1.002c0 .259.078.471.238.641.16.174.374.259.645.259.21 0 .374-.046.489-.142a.765.765 0 0 0 .252-.326c.052-.124.115-.311.178-.56.152-.534.467-.803.945-.803.152 0 .285.042.407.117a.85.85 0 0 1 .374.726c0 .287-.107.584-.333.889a11.89 11.89 0 0 1-.886 1.062"/>
    </g>
</svg>
