<svg xmlns="http://www.w3.org/2000/svg" width="30" height="35" viewBox="0 0 30 35">
    <g fill="#FFFFFF" fill-rule="evenodd">
        <path d="M4.04 26.1h21.917v6.475H4.04V26.1zM4.039 1.346h15.386v6.877a.67.67 0 0 0 .666.674h5.867v3.368H4.038V1.346zm23.248 10.918h.814A1.91 1.91 0 0 1 30 14.186v9.994c0 1.059-.851 1.92-1.899 1.92h-.812v6.839a1.34 1.34 0 0 1-1.33 1.347H4.04a1.34 1.34 0 0 1-1.329-1.347v-6.84h-.812A1.909 1.909 0 0 1 0 24.177v-9.991a1.91 1.91 0 0 1 1.898-1.922h.812V1.346A1.34 1.34 0 0 1 4.04 0h16.052a.724.724 0 0 1 .362.114.68.68 0 0 1 .137.116l6.53 7.552c.11.12.158.278.167.51v3.972zM2.144 15v9.084H4.14v-3.257h2.1c.568 0 1.052-.082 1.45-.248.399-.165.723-.384.974-.655.25-.272.432-.583.547-.935a3.455 3.455 0 0 0 0-2.157 2.517 2.517 0 0 0-.547-.929 2.714 2.714 0 0 0-.974-.655C7.292 15.083 6.808 15 6.24 15H2.143zm9.375 0v9.084h3.919c.695 0 1.3-.116 1.813-.35a3.607 3.607 0 0 0 1.285-.96c.343-.407.6-.89.77-1.45.17-.56.254-1.171.254-1.833 0-.755-.104-1.412-.312-1.972a3.877 3.877 0 0 0-.865-1.4 3.549 3.549 0 0 0-1.31-.84A4.678 4.678 0 0 0 15.437 15h-3.92zm9.777 0v9.084h1.997v-3.753h3.804v-1.552h-3.804v-2.1h4.39V15h-6.387z"/>
        <path d="M13.515 22.405h1.782c.288 0 .568-.047.84-.14.27-.093.513-.248.725-.464.212-.217.381-.499.509-.847.127-.347.19-.771.19-1.272 0-.458-.044-.871-.133-1.24a2.475 2.475 0 0 0-.44-.948 1.947 1.947 0 0 0-.807-.605c-.335-.14-.749-.21-1.24-.21h-1.426v5.726zM4.14 19.275h1.553c.229 0 .45-.017.661-.05.212-.035.399-.1.56-.198.161-.098.29-.235.388-.414.098-.178.146-.411.146-.7 0-.288-.048-.521-.146-.7a1.074 1.074 0 0 0-.388-.413 1.54 1.54 0 0 0-.56-.197 4.183 4.183 0 0 0-.661-.05H4.14v2.722z"/>
    </g>
</svg>
