<svg xmlns="http://www.w3.org/2000/svg" width="23" height="19" viewBox="0 0 23 19">
    <path fill="#FF691E" fill-rule="evenodd" d="M17.137 4.33c-.509-1.361-1.306-2.423-2.392-3.186C13.66.381 12.323 0 10.736 0 9.374 0 8.15.31 7.064.931a6.836 6.836 0 0 0-2.56 2.535c-.622 1.07-.977 2.269-1.067 3.6C2.434 7.395 1.61 8.02.966 8.94A5.288 5.288 0 0 0 0 12.046c0 1.405.48 2.624 1.437 3.656.959 1.033 2.097 1.548 3.414 1.548h2.067c.21 0 .381-.071.517-.213a.707.707 0 0 0 .201-.505.673.673 0 0 0-.056-.28.894.894 0 0 0-.145-.225.605.605 0 0 0-.225-.157.752.752 0 0 0-.292-.056H4.85c-.928 0-1.732-.374-2.414-1.122a3.802 3.802 0 0 1-1.022-2.648c0-.897.277-1.704.831-2.422.554-.718 1.228-1.145 2.022-1.279l.651-.112-.045-.673H4.85c0-1.167.24-2.213.72-3.14A5.341 5.341 0 0 1 7.635 2.23c.899-.53 1.932-.796 3.1-.796 2.68 0 4.41 1.264 5.189 3.791l.157.494.517.022c1.348.015 2.52.501 3.515 1.458.996.957 1.494 2.101 1.494 3.432 0 .838-.165 1.649-.495 2.434a5.003 5.003 0 0 1-1.449 1.963c-.636.523-1.35.785-2.144.785h-1.64a.69.69 0 0 0-.505.213.689.689 0 0 0-.213.505c0 .194.07.362.213.504a.69.69 0 0 0 .505.214h1.64a5.166 5.166 0 0 0 2.37-.64 5.076 5.076 0 0 0 1.729-1.548 7.663 7.663 0 0 0 1.022-2.097c.239-.763.359-1.54.359-2.333 0-1.63-.565-3.044-1.695-4.24-1.131-1.195-2.52-1.884-4.167-2.063v.002zM12.07 8.283V8.26l-.194-.189a.554.554 0 0 0-.4-.165.554.554 0 0 0-.399.165l-.193.189v.023l-2.807 3.013a.525.525 0 0 0-.17.389c0 .149.057.286.17.412l.193.117c.113.11.243.153.387.13a.835.835 0 0 0 .411-.2l1.646-1.79v7.58c0 .22.073.4.218.542a.747.747 0 0 0 .544.212c.217 0 .403-.071.557-.212a.703.703 0 0 0 .23-.542v-7.58l1.694 1.837c.113.11.242.176.387.2a.43.43 0 0 0 .387-.13l.194-.117a.604.604 0 0 0 .17-.412.525.525 0 0 0-.17-.389l-2.856-3.06z"/>
</svg>
