<svg xmlns="http://www.w3.org/2000/svg" width="30" height="31" viewBox="0 0 30 31">
    <g fill="#FFFFFF" fill-rule="evenodd">
        <path d="M2.341 30.82H24.37L13.355 19.806z"/>
        <path d="M26.848 10.269c-.378.496-.757.946-1.044 1.288l-.237.283c-1.243 1.497-2.185 3.29-2.882 4.973a22.186 22.186 0 0 0-2.338-3.999c-.059-.08-.115-.16-.175-.24-.35-.466-.761-.885-1.197-1.328-.388-.395-.768-.782-1.097-1.193-.599-.746-1.03-1.569-1.03-2.656 0-1.282.422-2.467 1.134-3.425a5.748 5.748 0 0 1 4.62-2.328 5.76 5.76 0 0 1 5.752 5.753c0 .191-.08.762-.83 1.918-.211.326-.444.649-.676.954zm-16.966.102c-.016 2.5-1.557 4.116-3.926 4.116-2.177 0-3.948-1.819-3.948-4.054 0-2.235 1.77-4.054 3.948-4.054 1.002 0 1.957.387 2.69 1.088L7.618 8.541a2.398 2.398 0 0 0-1.662-.675c-1.357 0-2.461 1.152-2.461 2.567 0 1.415 1.104 2.567 2.46 2.567.796 0 2.068-.265 2.373-1.89H5.92V9.623h3.965l-.004.748zM22.602 0a7.394 7.394 0 0 0-6.557 3.972H1.644C.74 3.972 0 4.712 0 5.616v22.315l16.71-16.71c.75.9 1.607 1.62 2.147 2.34.108.144.212.287.314.43l-3.2 3.2 10.877 10.877V12.87c.894-1.075 3.15-3.613 3.15-5.474A7.397 7.397 0 0 0 22.601 0z"/>
        <path d="M22.464 5.205a2.329 2.329 0 1 0 0 4.657 2.329 2.329 0 0 0 0-4.657"/>
    </g>
</svg>
