<svg xmlns="http://www.w3.org/2000/svg" width="30" height="46" viewBox="0 0 30 46">
    <g fill="#8881FF" fill-rule="evenodd">
        <path d="M20.087 32.946c-.719.864-1.47 1.746-2.273 2.654 4.269.565 6.943 2.214 6.943 3.378 0 1.424-4 3.577-10.03 3.577C8.7 42.555 4.7 40.402 4.7 38.978c0-1.167 2.693-2.823 6.985-3.382-.803-.91-1.556-1.793-2.276-2.659-4.623.989-7.709 3.26-7.709 6.04 0 3.75 5.601 6.578 13.028 6.578 7.428 0 13.03-2.827 13.03-6.577 0-2.773-3.069-5.038-7.67-6.032"/>
        <path d="M14.752.25C6.617.25 0 6.867 0 15.001c0 4.438 3.095 10.338 9.409 17.936.718.865 1.473 1.75 2.275 2.658.455.515.916 1.033 1.397 1.562l1.67 1.837 1.672-1.837c.48-.527.939-1.044 1.392-1.556.801-.909 1.554-1.79 2.272-2.655 6.319-7.602 9.416-13.503 9.416-17.945C29.503 6.867 22.885.25 14.752.25m0 3c6.48 0 11.75 5.272 11.75 11.751 0 4.573-4.743 11.24-8.723 16.028a112.925 112.925 0 0 1-3.027 3.502c-.278-.31-.55-.616-.819-.921a110.368 110.368 0 0 1-2.217-2.59C4.512 22.35 3 17.523 3 15 3 8.521 8.272 3.25 14.752 3.25"/>
        <path d="M14.748 15.892l-.78 3.69c-.27.993-.993 1.7-2.412 1.7-1.418 0-2.141-.707-2.412-1.7l-1.631-5.96s-.284-.85-.284-1.276c0-.781.638-1.42 1.56-1.42.993 0 1.56.568 1.774 1.42l1.135 4.681h.142l.922-4.398c.227-1.064.851-1.702 2.057-1.702s1.83.638 2.057 1.702l.922 4.398h.143l1.135-4.681c.212-.852.78-1.42 1.773-1.42.922 0 1.56.639 1.56 1.42 0 .426-.283 1.276-.283 1.276l-1.632 5.96c-.27.993-.993 1.7-2.412 1.7s-2.142-.707-2.412-1.7l-.78-3.69h-.142z"/>
    </g>
</svg>
