<svg xmlns="http://www.w3.org/2000/svg" width="45" height="44" viewBox="0 0 45 44">
    <defs>
        <radialGradient id="a" cy="8.928%" r="100%" fx="50%" fy="8.928%">
            <stop offset="0%" stop-color="#FFF" stop-opacity="0"/>
            <stop offset="100%" stop-color="#FF1600"/>
        </radialGradient>
        <filter id="b" width="158.1%" height="158.1%" x="-29%" y="-29%" filterUnits="objectBoundingBox">
            <feGaussianBlur in="SourceGraphic" stdDeviation="3"/>
        </filter>
    </defs>
    <g fill="none" fill-rule="evenodd" transform="translate(6 2)">
        <circle cx="16.5" cy="19.5" r="15.5" fill="url(#a)" filter="url(#b)" opacity=".37"/>
        <circle cx="16.5" cy="15.5" r="15.5" fill="#FFF"/>
        <path fill="#E65C4F" fill-rule="nonzero" d="M16.32 31.994c-9.034 0-16.327-7.172-16.287-16.09C.073 7.07 7.397-.076 16.484.013c8.91.083 16.183 7.19 16.111 16.134-.072 8.784-7.312 15.821-16.275 15.847zm-.006-30.725C8.184 1.243 1.396 7.688 1.317 15.84c-.085 8.306 6.735 14.814 14.833 14.897 8.249.083 15.115-6.413 15.154-14.61.046-8.262-6.65-14.86-14.99-14.86z"/>
        <path fill="#E65A4D" d="M24.903 8.733c.878-.09 1.704.593 1.763 1.46.013.23 0 .465 0 .701-.079 0-.138.051-.203.096l-2.156 1.504c-2.404 1.606-4.809 3.206-7.207 4.82-.249.165-.53.292-.727.528-.112.02-.184-.05-.262-.108l-5.825-3.946c-.661-.446-1.317-.892-2.03-1.37v5.877c0 1.613.006 3.225.012 4.838 0 .045-.006.09-.006.134-1.088.204-2.012-.3-2.254-1.237a1.732 1.732 0 0 1-.046-.408c0-3.742.007-7.49-.006-11.232-.007-.95.864-1.79 1.775-1.657.033.032.059.064.092.09 2.758 1.988 5.516 3.977 8.268 5.966.164.121.262.102.413-.007 1.716-1.236 3.44-2.466 5.156-3.697 1.081-.777 2.162-1.568 3.243-2.352z"/>
        <path fill="#E6E3D6" fill-rule="nonzero" d="M8.262 23.14c-.007-1.613-.007-3.226-.013-4.839v-5.476-.401l2.03 1.37 5.825 3.946c.079.051.15.121.262.109.013.14.144.178.243.242 2.227 1.504 4.455 2.996 6.676 4.513.282.191.61.331.825.612-.065.083-.157.064-.242.064-5.163 0-10.326-.007-15.488-.007.046-.063.091-.12.137-.185.144-.044.275-.102.328-.255.275-.038.439-.229.61-.414-.237.096-.46.198-.623.402-.144.044-.275.102-.328.255-.078.012-.157.038-.242.063zm3.924-2.55h.066c.085-.045.19-.064.196-.192.053 0 .105-.012.131-.063l.066-.064c.052 0 .105-.013.13-.064.007-.013.02-.019.027-.032-.013.007-.02.02-.033.026-.052 0-.104.013-.13.064l-.066.063c-.053 0-.105.013-.131.064a.205.205 0 0 0-.197.128c-.02.025-.04.044-.059.07-.013.006-.026.012-.032.025.013-.006.026-.013.032-.025zm-.393.255c.053 0 .105-.013.131-.064.053-.006.105-.013.098-.077 0-.006-.013-.019-.02-.019-.071-.006-.078.045-.084.096-.053 0-.099.006-.125.064-.026.019-.046.038-.072.057-.052 0-.105.013-.13.064l-.066.063c-.053 0-.105.013-.131.064-.092.007-.158.045-.197.128-.02.019-.04.044-.066.063-.006.013-.02.02-.026.032.013-.006.02-.019.033-.025.052 0 .105-.013.131-.064.079-.006.125-.045.131-.127.052 0 .105-.013.131-.064l.066-.064c.052 0 .104-.013.13-.064a.307.307 0 0 0 .066-.063zm-1.048.7c-.053.007-.105.014-.098.084 0 .006.013.019.02.019.065 0 .071-.051.078-.102.059.006.105-.007.137-.058.053-.006.105-.012.099-.082 0-.007-.013-.02-.02-.02-.072-.006-.079.045-.085.096-.059 0-.105.013-.131.064zm-.858.568a.226.226 0 0 0-.197.128c-.046.012-.105.019-.098.083 0 .006.013.019.02.019.065.006.078-.045.091-.096.092 0 .184-.013.197-.127.052 0 .098-.013.13-.064a.226.226 0 0 0 .197-.128c.046-.012.105-.012.099-.083 0-.006-.014-.019-.02-.019-.072-.006-.079.045-.085.096-.092 0-.184.006-.197.127-.059.007-.105.02-.137.064zm.723-.302c-.013-.04-.013-.096-.04-.11-.025-.013-.077 0-.103.028-.039.055-.026.124.052.124.013.013.052-.014.09-.042z"/>
        <path fill="#F6F4EC" d="M24.903 8.733c-1.08.784-2.162 1.568-3.25 2.352-1.716 1.237-3.44 2.46-5.156 3.697-.157.115-.249.128-.412.007-2.752-1.995-5.51-3.978-8.269-5.967-.033-.025-.059-.057-.091-.089 3.577 0 7.154-.006 10.738-.006 2.142.006 4.291.006 6.44.006z"/>
        <path fill="#B6B5AC" d="M24.11 23.203c-.216-.28-.543-.42-.825-.612-2.221-1.51-4.455-3.009-6.676-4.513-.092-.064-.223-.102-.243-.242.197-.236.479-.363.728-.53 2.397-1.612 4.802-3.212 7.206-4.818 0 3.588 0 7.177.007 10.766-.065-.006-.131-.032-.197-.05z"/>
        <path fill="#B13A30" d="M24.314 23.267c0-3.589 0-7.178-.007-10.767l2.156-1.504c.059-.045.117-.096.203-.096.006 1.18.013 2.353.013 3.532v6.903c0 .16 0 .32-.007.479-.04.79-.432 1.236-1.218 1.383-.38.07-.76.115-1.14.07z"/>
        <path fill="#C1C0B6" d="M8.524 23.082c-.046.064-.092.121-.138.185-.046 0-.085 0-.13.006 0-.044.006-.089.006-.134.085-.025.164-.044.249-.07l.013.013zM8.838 22.814c.164-.197.387-.306.623-.401-.17.185-.334.376-.61.414l-.013-.013z"/>
        <path fill="#C1C0B6" d="M8.851 22.827c-.059.153-.19.21-.327.255l-.013-.013c.052-.153.19-.21.327-.255l.013.013z"/>
        <path fill="#C5C3B9" d="M12.448 20.398c-.006.122-.118.14-.196.192v-.064a.205.205 0 0 1 .196-.128z"/>
        <path fill="#C3C2B8" d="M11.197 21.252c.04-.1.105-.152.197-.152l.006.007c0 .1-.046.145-.131.153-.02-.008-.046-.008-.072-.008z"/>
        <path fill="#C1C0B6" d="M10.227 21.936c-.039.099-.105.145-.196.152l-.007-.007c.013-.145.105-.153.197-.153l.006.008zM9.69 22.259c.04-.088.105-.139.197-.146l.006.015c-.013.138-.098.145-.196.145l-.007-.014zM10.87 21.53c.01-.08.03-.16.133-.15.01 0 .03.02.03.03 0 .11-.082.11-.153.13l-.01-.01zM10.804 21.554c-.01.082-.02.165-.133.154-.01 0-.03-.02-.03-.03 0-.124.081-.124.163-.124 0-.01 0 0 0 0zM10.611 21.807c-.026.014-.066.056-.092.056-.066-.014-.093-.07-.053-.127.013-.028.08-.042.106-.028a.347.347 0 0 1 .04.099z"/>
        <path fill="#C1C0B6" d="M10.214 21.974c.01-.079.03-.148.133-.148.01 0 .03.02.03.03.01.108-.081.108-.153.128l-.01-.01zM9.755 22.258c-.019.078-.029.147-.134.147-.01 0-.029-.02-.029-.03-.01-.107.077-.107.144-.127 0-.01.02.01.02.01z"/>
        <path fill="#C3C2B8" d="M11.924 20.845c.01-.085.02-.17.133-.16.01 0 .031.022.031.032 0 .117-.082.117-.164.128z"/>
        <path fill="#C5C3B9" d="M12.645 20.367c.033-.128.098-.16.164-.16-.033.128-.09.16-.164.16zM12.606 20.335c-.031.128-.094.16-.156.16l-.008-.016c.039-.112.093-.144.164-.144z"/>
        <path fill="#C3C2B8" d="M11.597 21.062c.03-.123.093-.154.156-.154l.008.016c-.04.107-.094.138-.164.138 0 .015 0 0 0 0zM11.4 21.196c.031-.128.094-.16.156-.16l.008.016c-.039.128-.094.144-.164.144z"/>
        <path fill="#C1C0B6" d="M11.21 21.227h.085c-.039.128-.093.16-.156.16l-.008-.016c.032-.048.055-.096.079-.144zM10.902 21.49c-.03.117-.093.146-.156.146l-.008-.015c.032-.116.094-.145.156-.145l.008.014zM9.887 22.191c.03-.113.093-.142.156-.142l.008.015c-.032.113-.094.141-.157.141l-.007-.014z"/>
        <path fill="#C3C2B8" d="M11.957 20.78c-.033.129-.09.16-.164.16.033-.143.09-.16.164-.16z"/>
        <path fill="#C5C3B9" d="M12.8 20.275c.033-.016.05-.048.083-.064-.033.016-.05.048-.082.064zM12.737 20.27l-.15.16-.014-.015c.06-.048.104-.096.164-.144z"/>
        <path fill="#C3C2B8" d="M12.35 20.526v.153c-.049 0-.098.015-.164 0a.754.754 0 0 1 .164-.153z"/>
        <path fill="#C3C2B8" d="M12.26 20.619c-.033.016-.05.048-.082.064.033-.016.05-.048.082-.064zM11.531 21.132l.15-.16.014.016c-.06.048-.104.096-.164.144z"/>
        <path fill="#C1C0B6" d="M11.212 21.32c-.033.016-.05.048-.082.064.033-.016.049-.048.082-.064z"/>
        <path fill="#C3C2B8" d="M11.885 20.845l-.149.16-.015-.016c.06-.048.104-.096.164-.144z"/>
    </g>
</svg>
