<svg xmlns="http://www.w3.org/2000/svg" width="20" height="15" viewBox="0 0 20 15">
    <path fill="#FF4D63" fill-rule="nonzero" d="M20 12.5c0 .438-.123.845-.32 1.202l-6.316-7.065 6.247-5.465c.243.386.389.839.389 1.328v10zM10 7.92L18.692.315A2.469 2.469 0 0 0 17.5 0h-15c-.434 0-.836.12-1.19.315L10 7.92zm2.423-.46L10.411 9.22a.624.624 0 0 1-.822 0L7.576 7.46l-6.394 7.155c.383.24.832.385 1.318.385h15a2.47 2.47 0 0 0 1.318-.385L12.423 7.46zM.39 1.172C.146 1.558 0 2.011 0 2.5v10c0 .438.123.845.321 1.203l6.314-7.067L.39 1.172z"/>
</svg>
