<?xml version="1.0" encoding="UTF-8" standalone="no"?>
<!-- Created with Inkscape (http://www.inkscape.org/) -->

<svg
   xmlns:dc="http://purl.org/dc/elements/1.1/"
   xmlns:cc="http://creativecommons.org/ns#"
   xmlns:rdf="http://www.w3.org/1999/02/22-rdf-syntax-ns#"
   xmlns:svg="http://www.w3.org/2000/svg"
   xmlns="http://www.w3.org/2000/svg"
   xmlns:inkscape="http://www.inkscape.org/namespaces/inkscape"
   version="1.1"
   width="515.41248"
   height="132.33749"
   id="svg2"
   xml:space="preserve"><metadata
     id="metadata8"><rdf:RDF><cc:Work
         rdf:about=""><dc:format>image/svg+xml</dc:format><dc:type
           rdf:resource="http://purl.org/dc/dcmitype/StillImage" /></cc:Work></rdf:RDF></metadata><defs
     id="defs6"><clipPath
       id="clipPath18"><path
         d="m 0,0 4123,0 0,1058.69 -4123,0 L 0,0 z"
         inkscape:connector-curvature="0"
         id="path20" /></clipPath></defs><g
     transform="matrix(1.25,0,0,-1.25,0,132.3375)"
     id="g10"><g
       transform="scale(0.1,0.1)"
       id="g12"><g
         id="g14"><g
           clip-path="url(#clipPath18)"
           id="g16"><path
             d="M 4123.26,120.301 C 4123.26,54.1406 4069.13,0 4002.95,0 L 120.309,0 C 54.1367,0 0,54.1406 0,120.301 l 0,818.082 c 0,66.167 54.1367,120.307 120.309,120.307 l 3882.641,0 c 66.18,0 120.31,-54.14 120.31,-120.307 l 0,-818.082"
             inkscape:connector-curvature="0"
             id="path22"
             style="fill:#134785;fill-opacity:1;fill-rule:nonzero;stroke:none" /><path
             d="m 746.742,532.777 c -4.277,83.18 -66.027,133.203 -140.586,133.203 l -2.82,0 c -86.047,0 -133.77,-67.671 -133.77,-144.542 0,-86.059 57.735,-140.434 133.442,-140.434 84.402,0 139.902,61.828 143.922,134.973 l -0.188,16.8 z M 603.762,740.41 c 57.5,0 111.566,-25.41 151.25,-65.207 l 0,-0.152 c 0,19.101 12.855,33.508 30.711,33.508 l 4.511,0.023 c 27.914,0 33.649,-26.402 33.649,-34.773 l 0.14,-297.032 c -1.972,-19.453 20.063,-29.492 32.286,-17.011 47.699,49.011 104.75,251.972 -29.653,369.566 C 701.391,838.969 533.316,820.906 443.93,759.285 348.91,693.754 288.102,548.695 347.172,412.449 411.555,263.848 595.797,219.531 705.293,263.758 c 55.453,22.363 81.062,-52.586 23.473,-77.07 C 641.754,149.629 399.57,153.367 286.43,349.336 209.996,481.668 214.059,714.492 416.793,835.125 571.875,927.422 776.348,901.883 899.641,773.113 1028.52,638.488 1021,386.414 895.289,288.426 838.336,243.906 753.746,287.227 754.281,352.109 l -0.586,21.211 c -39.664,-39.355 -92.433,-62.316 -149.933,-62.316 -113.61,0 -213.567,99.941 -213.567,213.547 0,114.734 99.957,215.859 213.567,215.859 l 0,0"
             inkscape:connector-curvature="0"
             id="path24"
             style="fill:#f89c0e;fill-opacity:1;fill-rule:evenodd;stroke:none" /><path
             d="m 2825.18,307.559 c -0.23,-18.399 -19.47,-37.227 -47.36,-37.227 -28.16,0 -45.69,20.535 -45.69,38.73 l 0.05,31.434 c 0.31,18.899 17.82,38.535 46.36,38.535 31.23,0 46.74,-21.054 46.74,-40.84 l -0.1,-30.632"
             inkscape:connector-curvature="0"
             id="path26"
             style="fill:#f89c0e;fill-opacity:1;fill-rule:evenodd;stroke:none" /><path
             d="m 2355.17,823.086 c 0,-19.387 -19.41,-35.309 -47.32,-35.309 -28.13,0 -45.66,19.258 -45.66,37.422 l 0.02,24.985 c 0.33,18.906 16.85,40.078 45.38,40.078 31.22,0 47.58,-20.254 47.58,-40.078 l 0,-27.098"
             inkscape:connector-curvature="0"
             id="path28"
             style="fill:#ffffff;fill-opacity:1;fill-rule:nonzero;stroke:none" /><path
             d="m 3809.71,786.73 0,-20.335 14.79,0 c 3.83,0 6.78,0.941 8.87,2.785 2.03,1.882 3.11,4.441 3.16,7.683 -0.05,3.196 -1.09,5.617 -3.06,7.285 -1.95,1.672 -5.36,2.54 -10.17,2.582 l -13.59,0 z m -10.03,-51.503 0,58.023 25.22,0 c 7.23,-0.078 12.68,-1.371 16.44,-3.969 3.71,-2.582 5.57,-6.625 5.67,-12.172 0,-3.671 -1.14,-6.679 -3.43,-9.066 -2.24,-2.391 -5.2,-3.961 -8.7,-4.617 l 0,-0.473 c 3.47,-0.703 6.04,-1.988 7.66,-3.902 1.63,-1.938 2.54,-5.281 2.8,-9.949 0.09,-5.696 0.33,-9.153 0.63,-10.34 0.28,-1.242 0.82,-2.387 1.64,-3.535 l -10.1,0 c -0.98,1.199 -1.55,2.418 -1.83,3.738 -0.28,1.277 -0.42,4.144 -0.42,8.562 -0.12,5.207 -1.1,8.555 -3.08,10.059 -1.97,1.523 -4.79,2.293 -8.53,2.293 l -13.94,0 0,-24.652 -10.03,0"
             inkscape:connector-curvature="0"
             id="path30"
             style="fill:#f89c0e;fill-opacity:1;fill-rule:nonzero;stroke:none" /><path
             d="m 3822.48,713.129 c -28.18,0 -51.09,22.836 -51.09,51.019 0,28.235 22.91,51.051 51.09,51.051 28.19,0 51.03,-22.816 51.03,-51.051 0,-28.183 -22.84,-51.019 -51.03,-51.019 z m 0.04,111.019 c -33.2,0 -60.15,-26.933 -60.15,-60.16 0,-33.226 26.95,-60.168 60.15,-60.168 33.25,0 60.15,26.942 60.15,60.168 0,33.227 -26.9,60.16 -60.15,60.16"
             inkscape:connector-curvature="0"
             id="path32"
             style="fill:#f89c0e;fill-opacity:1;fill-rule:nonzero;stroke:none" /><path
             d="m 1514.51,751.641 c -57.1,0.832 -100.82,-32.321 -127.8,-54.375 -29.96,32.074 -68.28,51.66 -107.69,54.105 -41.54,2.574 -80.5,-11.422 -105.27,-31.547 -8.67,20.125 -20.11,31.969 -39.71,31.969 -21.45,0 -44.29,-18.367 -44.29,-48.273 0,-29.903 0.26,-388.071 0.26,-388.071 0,-22.324 19.03,-44.883 46.2,-44.883 29.96,0 46.52,22.891 46.52,45.028 l 0,287.847 c 0,28.012 47.89,61.176 88.37,60.649 25.87,-0.367 56.61,-25.848 56.61,-66.098 l 0.23,-283.109 c 0,-25 25.19,-44.172 48.03,-44.172 27.16,0 47.73,20.539 47.73,43.918 l 0,286.086 c 0,35.086 53.26,64.453 89.73,62.566 28.57,-1.519 53.86,-32.652 53.86,-62.566 l 0,-285.688 c 0,-24.715 23.21,-44.316 48.26,-44.316 21.99,0 47.44,14.57 47.44,44.738 l 0,284.457 c 0.31,104.41 -102.8,153.11 -148.48,151.735"
             inkscape:connector-curvature="0"
             id="path34"
             style="fill:#ffffff;fill-opacity:1;fill-rule:nonzero;stroke:none" /><path
             d="m 2308.25,751.898 c -27.87,-0.105 -45.85,-22.945 -45.89,-46.136 l 0.09,-389.883 c -0.19,-25.899 20.3,-45.168 45.63,-45.168 28.88,0 47.34,22.578 47.34,47.18 l 0.2,387.199 c 0,22.926 -23.12,46.902 -47.37,46.808"
             inkscape:connector-curvature="0"
             id="path36"
             style="fill:#ffffff;fill-opacity:1;fill-rule:nonzero;stroke:none" /><path
             d="m 1950.39,359.648 c -83.8,0 -151.7,67.879 -151.7,151.629 0,83.754 67.9,151.625 151.7,151.625 83.78,0 151.71,-67.871 151.71,-151.625 0,-83.75 -67.93,-151.629 -151.71,-151.629 z m 196.01,392.145 c -26.18,0.023 -44.7,-20.914 -44.7,-41.332 l 0,-15.922 c -41.3,35.176 -94.81,57.008 -152.61,57.102 -127.14,0.175 -239.74,-106.914 -239.74,-240.911 0,-122.859 107.29,-240.164 239.74,-240.164 53.58,0 111.21,20.586 152.16,55.555 l 0.12,-11.375 c 0,-21.808 17.28,-44.18 45.66,-44.18 32.24,0 46.67,25.762 46.67,46.082 l 0,391.309 c 0.33,18.391 -19.84,43.801 -47.3,43.836"
             inkscape:connector-curvature="0"
             id="path38"
             style="fill:#ffffff;fill-opacity:1;fill-rule:nonzero;stroke:none" /><path
             d="m 2627.48,363.711 c -59.03,0.047 -111.66,45.449 -111.66,112.363 l 0.07,370.656 c -0.07,25.602 -20.96,43.532 -46.5,43.532 -29.68,-0.106 -46.79,-21.934 -46.79,-43.532 l 0,-371.027 c -0.35,-115.117 94.87,-205.371 203.23,-205.371 32.19,0 47.7,26.082 47.7,48.223 0,21.093 -16.63,45.156 -46.05,45.156"
             inkscape:connector-curvature="0"
             id="path40"
             style="fill:#ffffff;fill-opacity:1;fill-rule:nonzero;stroke:none" /><path
             d="M 3129.87,751.973 C 3000,751.414 2889.23,636.961 2889.87,510.984 l 0,-196.355 c 0,-25.567 20.92,-44.297 42.98,-44.297 26.25,0 46.62,19.363 46.62,42.957 l 0,199.348 c -0.07,71.375 62.28,150.148 149.84,149.726 28.48,-0.109 47.21,21.496 47.04,45.43 -0.1,19.105 -13.82,44.297 -46.48,44.18"
             inkscape:connector-curvature="0"
             id="path42"
             style="fill:#f89c0e;fill-opacity:1;fill-rule:evenodd;stroke:none" /><path
             d="m 3669.25,751.973 c -27.61,0 -45.4,-22.633 -45.4,-43.489 l 0.02,-197.605 c 0,-76.25 -64.24,-150.734 -153.54,-150.734 -73.01,0 -150.36,63.351 -150.36,149.335 l 0,197.942 c 0,20.754 -15.58,44.551 -46.51,44.551 -21.82,0 -44.13,-18.321 -44.13,-43.684 l 0,-197.266 c 0,-127.761 114.15,-240.242 240.71,-240.242 138.17,0 244.2,118.446 244.2,239.649 l 0,197.937 c 0,22.199 -18.3,43.606 -44.99,43.606"
             inkscape:connector-curvature="0"
             id="path44"
             style="fill:#f89c0e;fill-opacity:1;fill-rule:evenodd;stroke:none" /></g></g></g></g></svg>