<svg xmlns="http://www.w3.org/2000/svg" width="45" height="44" viewBox="0 0 45 44">
    <defs>
        <radialGradient id="a" cy="8.928%" r="100%" fx="50%" fy="8.928%">
            <stop offset="0%" stop-color="#FFF" stop-opacity="0"/>
            <stop offset="100%" stop-color="#0093FF"/>
        </radialGradient>
        <filter id="b" width="158.1%" height="158.1%" x="-29%" y="-29%" filterUnits="objectBoundingBox">
            <feGaussianBlur in="SourceGraphic" stdDeviation="3"/>
        </filter>
    </defs>
    <g fill="none" fill-rule="evenodd" transform="translate(6 2)">
        <circle cx="16.5" cy="19.5" r="15.5" fill="url(#a)" filter="url(#b)" opacity=".37"/>
        <g>
            <rect width="32.792" height="31.873" y=".064" fill="#0072C6" rx="15.936"/>
            <path fill="#FFF" fill-rule="nonzero" d="M18.236 5.8L6.016 8.1v15.61l12.22 2.49V5.801zm.771 4.325v3.99l1.434.878c.038.011.12.012.157 0l6.176-4.046c0-.478-.46-.822-.718-.822h-7.049zm-6.743 2.307c.806 0 1.458.32 1.956.961.498.642.747 1.49.747 2.54 0 1.08-.257 1.95-.773 2.61-.517.66-1.19.991-2.021.991-.81 0-1.468-.32-1.978-.959-.51-.64-.767-1.475-.767-2.503 0-1.085.261-1.963.779-2.634.518-.67 1.203-1.006 2.057-1.006zm14.511.127s-6.272 4.053-6.05 3.92c0 0-.223.133-.408 0l-1.31-.873v5.421h6.65c.591 0 1.118-.335 1.118-1.134V12.56zm-14.547 1.207c-.446 0-.8.203-1.063.61-.263.407-.396.945-.396 1.616 0 .68.133 1.218.396 1.613.262.396.606.593 1.032.593.439 0 .787-.193 1.044-.578.257-.384.387-.919.387-1.602 0-.711-.125-1.264-.375-1.66-.25-.396-.592-.592-1.025-.592z"/>
        </g>
    </g>
</svg>
