<svg xmlns="http://www.w3.org/2000/svg" xmlns:xlink="http://www.w3.org/1999/xlink" width="1000" height="232.85"><defs><radialGradient xlink:href="#a" id="U" cx="1214.221" cy="1680.704" fx="1214.221" fy="1680.704" r="22.495" gradientTransform="matrix(-1.22304 -.2372 .15644 -.9467 2438.573 3564.704)" gradientUnits="userSpaceOnUse"/><linearGradient id="a"><stop offset="0" stop-color="#6700e8"/><stop offset=".399" stop-color="#5c00ce"/><stop offset=".701" stop-color="#5600bf" stop-opacity=".045"/><stop offset="1" stop-color="#220047" stop-opacity="0"/></linearGradient><linearGradient gradientTransform="translate(-1015.096 -735.2) scale(.60986)" xlink:href="#b" id="T" x1="372.77" y1="1915.999" x2="397.81" y2="1915.999" gradientUnits="userSpaceOnUse"/><linearGradient id="b"><stop offset="0" stop-color="#5500bd"/><stop offset="1" stop-color="#5200b2"/></linearGradient><linearGradient gradientTransform="translate(-1015.096 -735.2) scale(.60986)" xlink:href="#c" id="S" x1="1161.157" y1="1962.863" x2="1198.648" y2="1704.174" gradientUnits="userSpaceOnUse"/><linearGradient id="c"><stop offset="0" stop-color="#47008d"/><stop offset="1" stop-color="#5100b3"/></linearGradient><radialGradient xlink:href="#d" id="R" cx="1159.125" cy="2013.893" fx="1159.125" fy="2013.893" r="24.948" gradientTransform="matrix(-.21925 .74474 -.78219 -.23028 1523.934 90.984)" gradientUnits="userSpaceOnUse"/><linearGradient id="d"><stop offset="0" stop-color="#6000d8"/><stop offset=".209" stop-color="#5c00cd"/><stop offset=".374" stop-color="#5500be"/><stop offset=".721" stop-color="#2d0062"/><stop offset="1" stop-color="#210045"/></linearGradient><linearGradient gradientTransform="translate(-1015.096 -735.2) scale(.60986)" xlink:href="#e" id="Q" x1="829.866" y1="2003.658" x2="1020.945" y2="1699.444" gradientUnits="userSpaceOnUse"/><linearGradient id="e"><stop offset="0" stop-color="#1b0041"/><stop offset=".1" stop-color="#1b0041"/><stop offset=".205" stop-color="#1b0041"/><stop offset=".3" stop-color="#240052"/><stop offset=".4" stop-color="#32006a"/><stop offset=".5" stop-color="#3d007d"/><stop offset=".6" stop-color="#490098"/><stop offset=".7" stop-color="#4f00a8"/><stop offset=".803" stop-color="#5500bc"/><stop offset=".9" stop-color="#5700c2"/><stop offset="1" stop-color="#6000da"/></linearGradient><linearGradient gradientTransform="translate(-1015.096 -735.2) scale(.60986)" xlink:href="#f" id="P" x1="979.926" y1="1699.285" x2="829.275" y2="1983.828" gradientUnits="userSpaceOnUse"/><linearGradient id="f"><stop offset="0" stop-color="#1e0046"/><stop offset=".1" stop-color="#2d0061"/><stop offset=".205" stop-color="#33006b"/><stop offset=".3" stop-color="#400082"/><stop offset=".4" stop-color="#490096"/><stop offset=".5" stop-color="#5000ac"/><stop offset=".6" stop-color="#5500bd"/><stop offset=".7" stop-color="#4f00a8"/><stop offset=".803" stop-color="#5500bc"/><stop offset=".9" stop-color="#5700c2"/><stop offset="1" stop-color="#6000da"/></linearGradient><linearGradient gradientTransform="translate(-1015.096 -735.2) scale(.60986)" xlink:href="#e" id="O" x1="462.794" y1="1977.95" x2="664.272" y2="1725.724" gradientUnits="userSpaceOnUse"/><linearGradient gradientTransform="translate(-1015.096 -735.2) scale(.60986)" xlink:href="#g" id="N" x1="632.175" y1="1725.375" x2="471.276" y2="1962.377" gradientUnits="userSpaceOnUse"/><linearGradient id="g"><stop offset="0" stop-color="#1c0044"/><stop offset=".1" stop-color="#2f0065"/><stop offset=".205" stop-color="#34006d"/><stop offset=".3" stop-color="#3b007a"/><stop offset=".4" stop-color="#3c007a"/><stop offset=".5" stop-color="#490096"/><stop offset=".6" stop-color="#5000ab"/><stop offset=".7" stop-color="#5400ba"/><stop offset=".803" stop-color="#5500bc"/><stop offset=".9" stop-color="#5700c2"/><stop offset="1" stop-color="#5c00ce"/></linearGradient><linearGradient gradientTransform="translate(-1015.096 -735.2) scale(.60986)" xlink:href="#h" id="M" x1="163.228" y1="1856.76" x2="372.848" y2="1856.76" gradientUnits="userSpaceOnUse"/><linearGradient id="h"><stop offset="0" stop-color="#6700e8"/><stop offset=".5" stop-color="#6700e8"/><stop offset="1" stop-color="#6700e8"/></linearGradient><linearGradient gradientTransform="translate(-1015.096 -735.2) scale(.60986)" xlink:href="#i" id="L" x1="347.463" y1="1999.149" x2="373.355" y2="1999.149" gradientUnits="userSpaceOnUse"/><linearGradient id="i"><stop offset="0" stop-color="#3f008b"/><stop offset="1" stop-color="#220050"/></linearGradient><linearGradient gradientTransform="translate(-1015.096 -735.2) scale(.60986)" xlink:href="#j" id="K" x1="138.232" y1="1713.226" x2="163.246" y2="1713.226" gradientUnits="userSpaceOnUse"/><linearGradient id="j"><stop offset="0" stop-color="#390080"/><stop offset=".5" stop-color="#31006e"/><stop offset="1" stop-color="#250056"/></linearGradient><linearGradient gradientTransform="translate(-1015.096 -735.2) scale(.60986)" xlink:href="#k" id="J" x1="162.66" y1="1838.203" x2="187.847" y2="1838.203" gradientUnits="userSpaceOnUse"/><linearGradient id="k"><stop offset="0" stop-color="#5a00c9"/><stop offset="1" stop-color="#4f00a8"/></linearGradient><linearGradient gradientTransform="translate(-1015.096 -735.2) scale(.60986)" xlink:href="#l" id="I" x1="-103.636" y1="1909.572" x2="51.417" y2="1909.572" gradientUnits="userSpaceOnUse"/><linearGradient id="l"><stop offset="0" stop-color="#6700e8"/><stop offset=".506" stop-color="#6700e8"/><stop offset="1" stop-color="#6700e8"/></linearGradient><linearGradient gradientTransform="translate(-1015.096 -735.2) scale(.60986)" xlink:href="#m" id="H" x1="-169.287" y1="2005.123" x2="-26.132" y2="1718.528" gradientUnits="userSpaceOnUse"/><linearGradient id="m"><stop offset="0" stop-color="#4d00a1"/><stop offset="1" stop-color="#5200b4"/></linearGradient><linearGradient gradientTransform="translate(-1015.096 -735.2) scale(.60986)" xlink:href="#n" id="G" x1="-253.601" y1="1878.776" x2="-253.601" y2="2047.033" gradientUnits="userSpaceOnUse"/><linearGradient id="n"><stop offset="0" stop-color="#210045"/><stop offset=".25" stop-color="#25004d"/><stop offset=".5" stop-color="#2b005c"/><stop offset=".749" stop-color="#340071"/><stop offset="1" stop-color="#3e0088"/></linearGradient><linearGradient gradientTransform="translate(-1015.096 -735.2) scale(.60986)" xlink:href="#o" id="F" x1="-248.818" y1="1877.211" x2="-227.231" y2="2047.256" gradientUnits="userSpaceOnUse"/><linearGradient id="o"><stop offset="0" stop-color="#5500bd"/><stop offset="1" stop-color="#5300b5"/></linearGradient><linearGradient gradientTransform="translate(-1015.096 -735.2) scale(.60986)" xlink:href="#p" id="E" gradientUnits="userSpaceOnUse" x1="-291.093" y1="1850.658" x2="-273.088" y2="1838.676"/><linearGradient id="p"><stop offset="0" stop-color="#27005d" stop-opacity=".98"/><stop offset=".318" stop-color="#2b005d"/><stop offset=".598" stop-color="#280055"/><stop offset=".809" stop-color="#24004d"/><stop offset="1" stop-color="#230049"/></linearGradient><linearGradient gradientTransform="translate(-1015.096 -735.2) scale(.60986)" xlink:href="#q" id="D" x1="-349.936" y1="1669.673" x2="-250.333" y2="1877.59" gradientUnits="userSpaceOnUse"/><linearGradient id="q"><stop offset="0" stop-color="#5100b2"/><stop offset="1" stop-color="#5500bd"/></linearGradient><linearGradient gradientTransform="translate(-1015.096 -735.2) scale(.60986)" xlink:href="#r" id="C" x1="-149.697" y1="1667.754" x2="-249.852" y2="1877.169" gradientUnits="userSpaceOnUse"/><linearGradient id="r"><stop offset="0" stop-color="#5500bd"/><stop offset="1" stop-color="#47008d"/></linearGradient><linearGradient gradientTransform="translate(-1015.096 -735.2) scale(.60986)" xlink:href="#s" id="B" x1="-209.431" y1="1808.663" x2="-190.685" y2="1819.835" gradientUnits="userSpaceOnUse"/><linearGradient id="s"><stop offset="0" stop-color="#1b0041"/><stop offset="1" stop-color="#21004f"/></linearGradient><linearGradient gradientTransform="translate(-1015.096 -735.2) scale(.60986)" xlink:href="#t" id="A" x1="-122.894" y1="2007.68" x2="-26.7" y2="1759.051" gradientUnits="userSpaceOnUse"/><linearGradient id="t"><stop offset="0" stop-color="#21004e"/><stop offset="1" stop-color="#39007f"/></linearGradient><linearGradient gradientTransform="translate(-1015.096 -735.2) scale(.60986)" xlink:href="#u" id="z" x1="44.989" y1="1945.457" x2="63.199" y2="1938.494" gradientUnits="userSpaceOnUse"/><linearGradient id="u"><stop offset="0" stop-color="#2a005a"/><stop offset="1" stop-color="#210046"/></linearGradient><linearGradient gradientTransform="translate(-1015.096 -735.2) scale(.60986)" xlink:href="#v" id="y" x1="-24.637" y1="1718.099" x2="115.152" y2="2003.3" gradientUnits="userSpaceOnUse"/><linearGradient id="v"><stop offset="0" stop-color="#5500bd"/><stop offset="1" stop-color="#5000ac"/></linearGradient><linearGradient id="w"><stop offset="0" stop-color="#210045"/><stop offset=".594" stop-color="#430085"/><stop offset="1" stop-color="#5000b2"/></linearGradient><linearGradient gradientTransform="translate(-1015.096 -735.2) scale(.60986)" y2="1701.864" x2="1224.965" y1="1962.234" x1="1177.815" gradientUnits="userSpaceOnUse" id="x" xlink:href="#w"/></defs><path d="M-272.82 284.693c7.662 1.281 12.78 5.971 12.78 14.045 0 2.673-1.101 6.435-1.838 9.616-5.133 22.63-25.182 102.588-33.623 155.957l-7.766-7.766 24.719-164.165z" fill="url(#x)" transform="translate(1259.54 -281.525)"/><path d="M487.117 24.894c-10.347 2.478-20.506 2.41-30.494 0l15.857 16.467zm-158.512 0c10.346 2.478 20.506 2.41 30.493 0L343.24 41.361z" fill="#6700e8"/><path d="M-1020.435 306.355c23.383 59.178 60.182 148.75 78.517 182.985l-27.144-8.295-67.165-167.966z" fill="url(#y)" transform="translate(1259.54 -281.525)"/><path d="M217.844 24.825c7.468 2.502 13.662 2.656 21.264 0l-15.113 9.284z" fill="#6700e8"/><path d="M-1030.957 312.81l68.438 167.849c-4.05 4.385-5.855 6.686-9.792 8.738-19.836-51.092-41.139-102.196-59.186-152.627l-8.908-15.104z" fill="url(#z)" transform="translate(1259.54 -281.525)"/><path d="M-1089.818 489.333l-20.204-7.156 71.141-166.914 7.928-2.452v24.712c-11.062 31.919-39.135 101.951-58.865 151.81z" fill="url(#A)" transform="translate(1259.54 -281.525)"/><path d="M152.965.5l6.709 15.246 17.076-7.928L183.694.5c-10.985 2.492-20.893 2.575-30.729 0z" fill="#6700e8"/><path d="M-1154.754 414.975l-11.588 4.269-7.318-12.807 72.573-115.874 5.189-1.777c7.162-1.618 14.973-3.354 20.06-6.76-11.525 15.569-53.492 88.343-78.916 132.949z" fill="url(#B)" transform="translate(1259.54 -281.525)"/><path d="M-1170.61 413.145l3.049-3.05 71.794-121.335-10.808-6.735c-8.669 16.146-40.639 68.392-60.986 101.847l-9.758 18.296z" fill="url(#C)" transform="translate(1259.54 -281.525)"/><path d="M-1228.547 282.025c15.916 28.207 40.349 67.667 60.986 101.847v26.224l-4.88 4.879-71.353-126.851z" fill="url(#D)" transform="translate(1259.54 -281.525)"/><path d="M19.232 8.172L30.993.5C18.373 3.191 13.094 3.363.5.5l4.879 5.489z" fill="#6700e8"/><path d="M-1167.561 410.096l-5.49 7.928-7.318-3.05c-13.625-23.549-53.677-95.286-78.671-132.949 5.066 3.672 11.911 5.686 19.817 6.97z" fill="url(#E)" transform="translate(1259.54 -281.525)"/><path d="M-1152.925 513.162l-20.735-9.758 1.83-86.6 4.269-6.708 12.807 4.879z" fill="url(#F)" transform="translate(1259.54 -281.525)"/><path d="M-1167.561 506.454l-14.637 6.708 1.83-98.187 12.807-4.88z" fill="url(#G)" transform="translate(1259.54 -281.525)"/><path d="M-1119.992 489.378c25.443-51.865 53.737-121.415 78.294-183.037l10.745 6.474-69.462 169.92-14.088 4.813z" fill="url(#H)" transform="translate(1259.54 -281.525)"/><path d="M296.294 198.829l21.352 8.992c-8.19-2.065-19.278-2.857-30.42.053l4.169-10.268z" fill="#200045"/><path d="M-1078.515 429.378l15.012-6.442c21.625.76 43.25.75 64.874 0l15.229 6.63-14.177 3.1h-70.184z" fill="url(#I)" transform="translate(1259.54 -281.525)"/><path d="M191.025 154.186l-10.08-6.334c31.673-.484 63.393-.445 95.168.189l-10.08 6.145c-25.003-.81-50.006-.713-75.008 0z" fill="#200045"/><path d="M-900.443 489.378l-21.345-7.319V318.007l6.099-3.05 15.246-8.537c-3.163 60.878-3.233 121.864 0 182.958z" fill="url(#J)" transform="translate(1259.54 -281.525)"/><path d="M-915.69 480.84v4.269l-15.246 4.269c2.425-60.89 2.656-121.866 0-182.958l15.247 8.538z" fill="url(#K)" transform="translate(1259.54 -281.525)"/><path d="M-802.917 489.378l21.345-7.319V318.007l-6.098-3.05-15.247-8.537c3.164 60.878 3.233 121.864 0 182.958z" fill="url(#L)" transform="translate(1259.54 -281.525)"/><path d="M-915.629 397.52l12.816-5.714c34.057.859 68.154.794 102.284 0l12.856 5.714-15.902 3.8h-99.346z" fill="url(#M)" transform="translate(1259.54 -281.525)"/><path d="M-664.789 306.351c-59.895 0-89.783 37.448-89.783 91.899 0 68.197 45.237 91.822 89.002 91.822 51.983 0 89.249-29.25 89.249-91.65 0-60.057-35.275-92.07-88.468-92.07zm-1.791 8.69c.563-.01 1.13 0 1.696 0 39.557 0 68.609 26.945 68.609 83.247 0 56.23-29.013 83.17-68.533 83.17-43.12 0-68.457-30.9-68.457-83.018 0-58.944 31.22-82.672 66.685-83.398z" fill="url(#N)" transform="translate(1259.54 -281.525)"/><path d="M-664.999 303.95c-64.688 0-98.625 41.016-98.625 94.185 0 58.196 37.05 93.69 98.53 93.69 66.468 0 98.93-40 98.93-93.08 0-59.18-38.767-94.795-98.835-94.795zm.191 6.06c51.075 0 84.942 30.727 84.942 88.392 0 59.917-35.79 88.01-85.704 88.01-42.022 0-85.457-22.68-85.457-88.162 0-52.283 28.708-88.24 86.219-88.24z" fill="url(#O)" transform="translate(1259.54 -281.525)"/><path d="M-441.275 296.994c-60.789 0-102.438 34.366-102.438 101.35 0 65.711 38.747 102.42 102.686 102.42 48.426 0 101.484-24.873 101.484-101.485 0-82.685-57.955-102.285-101.732-102.285zm-.324 7.318c48.376 0 84.008 29.388 84.008 94.204 0 70.459-43.103 93.309-83.932 93.309-43.622 0-83.36-25.6-83.36-94.7 0-71.621 44.046-92.813 83.284-92.813z" fill="url(#P)" transform="translate(1259.54 -281.525)"/><path d="M-441.675 292.934c-64.42 0-113.663 36.58-113.663 104.591 0 56.035 32.754 105.354 114.196 105.354 68.95 0 113.968-37.908 113.968-104.363 0-62.666-41.996-105.582-114.501-105.582zm.4 6.823c42.587 0 98.969 19.086 98.969 99.522 0 74.529-51.631 98.72-98.74 98.72-62.2 0-99.884-35.712-99.884-99.635 0-65.163 40.52-98.607 99.655-98.607z" fill="url(#Q)" transform="translate(1259.54 -281.525)"/><path d="M-322.2 499.845c0-7.87 4.785-15.186 14.377-15.186 9.182 0 16.052 5.49 16.052 14.262 0 10.927-7.231 14.955-13.858 14.955-9.161 0-16.571-4.754-16.571-14.031z" fill="url(#R)" transform="translate(1259.54 -281.525)"/><path d="M-306.882 462.566c7.436-52.557 11.959-107.792 16.301-162.868 0-10.977 7.256-15.27 14.576-15.27 1.283 0 3.176.267 3.176.267l-1.992 13.166-26.08 163.245z" fill="url(#S)" transform="translate(1259.54 -281.525)"/><path d="M77.342 231.637l14.664-10.743 14.61 10.743s-8.1-1.474-14.61-1.474c-5.875 0-14.664 1.474-14.664 1.474zm62.204-23.762L160 199.031c3.121 3.742 5.898 6.913 9.731 8.79-7.363-1.993-18.512-2.887-30.184.031zm189.059-.023c9.903-2.386 20.043-2.492 30.455 0l-15.209-8.538zm28.122-85.092l-12.843-6.765c42.66.445 85.32.52 127.98 0l-12.825 6.725a3733.744 3733.744 0 0 0-102.312.04z" fill="#200045"/><path d="M-787.67 480.84v4.269l15.246 4.269c-2.424-60.89-2.656-121.866 0-182.958l-15.246 8.538z" fill="url(#T)" transform="translate(1259.54 -281.525)"/><path d="M487.117 207.852c-9.904-2.386-20.044-2.492-30.455 0l15.208-8.538zm472.268-32.976l-6.757 6.165c4.528-.798 8.03.384 11.432 1.755z" fill="#200045"/><path d="M1237.478 1693.06c0 11.758-10.071 21.29-22.495 21.29-12.423 0-22.494-9.532-22.494-21.29 0-11.757 10.07-21.29 22.494-21.29s22.495 9.533 22.495 21.29z" transform="matrix(.66068 0 0 .60986 181.553 -1016.317)" fill="url(#U)" fill-rule="evenodd"/></svg>