<svg xmlns="http://www.w3.org/2000/svg" width="45" height="44" viewBox="0 0 45 44">
    <defs>
        <radialGradient id="a" cy="8.928%" r="100%" fx="50%" fy="8.928%">
            <stop offset="0%" stop-color="#FFF" stop-opacity="0"/>
            <stop offset="100%" stop-color="#B100FF"/>
        </radialGradient>
        <filter id="b" width="158.1%" height="158.1%" x="-29%" y="-29%" filterUnits="objectBoundingBox">
            <feGaussianBlur in="SourceGraphic" stdDeviation="3"/>
        </filter>
    </defs>
    <g fill="none" fill-rule="evenodd" transform="translate(5 2)">
        <circle cx="17.5" cy="19.5" r="15.5" fill="url(#a)" filter="url(#b)" opacity=".37"/>
        <path fill="#720E9E" d="M17.041.161c8.781 0 15.9 6.912 15.9 15.438 0 8.527-7.119 15.438-15.9 15.438S1.142 24.126 1.142 15.6C1.142 7.073 8.26.161 17.042.161z"/>
        <path fill="#FFF" fill-rule="nonzero" d="M24.321 12.347l.017-.002.527-.57-.026-.002.055-.085h-7.378l.284.98h2.014l-3.389 3.045c-.691-.98-2.312-3.23-3.443-4.919h2.102v-.695l.028-.2-.028-.003v-.081H7.105v.979H9.6c.97.777 5.17 5.728 5.323 6.201.061.443.149 3.057-.032 3.254-.218.304-2.49.14-2.89.169l-.016.96c.732.02 2.926-.001 3.666-.001 1.459 0 4.014-.037 4.373-.009l.045-.909-2.936-.042c-.062-.412-.13-3.013-.068-3.296.277-.823 4.783-4.23 5.246-4.358l.436-.095h1.361l.213-.32zm-1.101 6.794l1.276.095 1.487-5.297c-.248-.01-2.505-.205-2.798-.258l.035 5.46zm-.22.85l.006 1.293.646.052.698.048.205-1.266-.736-.033-.82-.095z"/>
    </g>
</svg>
