<svg xmlns="http://www.w3.org/2000/svg" width="46" height="28" viewBox="0 0 46 28"><path fill="none" stroke="#FFF" stroke-linecap="round" stroke-linejoin="round" stroke-miterlimit="10" d="M27.6 11.1c-1.4 0-2.6.4-3.7 1-.7-3.7-4-6.5-7.9-6.5-8.2.2-8.5 8.3-8.5 8.4-3.1 0-6.1 2.5-6.1 5.6v.3c0 4.4 3.7 5.7 6.8 5.7H27c.2 0 7.8.3 7.7-7.4-.1-3.8-3.2-7.1-7.1-7.1z"/><path fill="none" stroke="#FFF" stroke-linecap="round" stroke-linejoin="round" stroke-miterlimit="10" d="M34.7 20.1c3 1.1 6.7-.4 9-3.1-1.6.1-3.3-.2-4.9-1-4.4-2.3-6.1-7.7-3.8-12.1.4-.7.8-1.3 1.3-1.8-3 .2-5.7 2-7.2 4.8-.8 1.5-1.1 2.4-1.2 3.9"/></svg>