<svg xmlns="http://www.w3.org/2000/svg" xmlns:xlink="http://www.w3.org/1999/xlink" width="46" height="28" viewBox="0 0 46 28"><image overflow="visible" width="4608" height="3072" xlink:href="2C1BA8807FC8885.jpg" transform="translate(-1678.914 -1000.658) scale(.3021)"/><path fill="#FFF" d="M-1251.5-572.9h86.6v31.7h-86.6z"/><path fill="#FFF" stroke="#B3B3B3" stroke-miterlimit="10" d="M-1158.2-572.9h463v31.7h-463z"/><g fill="none" stroke="#999" stroke-width="2" stroke-linecap="round" stroke-miterlimit="10"><circle cx="-711.6" cy="-557.9" r="5.3"/><path d="M-708.3-553.8l3.6 3.9"/></g><path fill="#FFF" stroke="#E6E6E6" stroke-miterlimit="10" d="M-1181.7-570.8v29"/><path fill="#666" d="M-1172.8-556.7l-3-3h6z"/><path opacity=".58" fill="none" stroke="#CCC" stroke-miterlimit="10" d="M-216.2-126.3h-1516"/><text transform="translate(-509.612 -102.762)" fill="#F2F2F2" font-family="'NHaasGroteskDSPro-35XLt'" font-size="12">EULA</text><text transform="translate(-450.186 -102.763)" fill="#F2F2F2" font-family="'NHaasGroteskDSPro-35XLt'" font-size="12">Privacy Policy</text><text transform="translate(-358.7 -102.763)" fill="#F2F2F2" font-family="'NHaasGroteskDSPro-35XLt'" font-size="12">Settings</text><text transform="translate(-1599.167 -823.166)" fill="gray" font-family="'NHaasGroteskDSPro-35XLt'" font-size="14">Web</text><text transform="translate(-1528.58 -823.167)" fill="#F2F2F2" font-family="'NHaasGroteskDSPro-35XLt'" font-size="14">Images</text><text transform="translate(-1448.255 -823.167)" fill="#F2F2F2" font-family="'NHaasGroteskDSPro-35XLt'" font-size="14">videos</text><text transform="translate(-511.667 -799.121)" fill="#F2F2F2" font-family="'NHaasGroteskDSPro-35XLt'" font-size="40">12:35</text><path fill="none" d="M-422.8-823.2h96.7v28.3h-96.7z"/><text transform="translate(-422.834 -815.301)"><tspan x="0" y="0" fill="#F2F2F2" font-family="'NHaasGroteskDSPro-35XLt'" font-size="11">Wednesday</tspan><tspan x="0" y="12.4" fill="#F2F2F2" font-family="'NHaasGroteskDSPro-35XLt'" font-size="11">14.10.2015</tspan></text><g fill="none" stroke="#F2F2F2" stroke-miterlimit="10"><circle cx="-346.4" cy="-833.5" r="7.3"/><path d="M-346.7-836.8v3.5h3.5"/></g><path fill="#F2F2F2" d="M-311.1-828.5c.8-.9 1.3-2 1.3-3.3 0-2.7-2.2-4.9-4.9-4.9-.4 0-.7 0-1.1.1-.7-2.3-2.8-3.9-5.4-3.9-3.1 0-5.6 2.5-5.6 5.6v.2c-1.8.1-3.4 1.6-3.4 3.4v.6c0 1.9 1.6 3.8 3.5 3.8h10.5c.5 0 2.8-.1 3.4-.4.7-.1 1.3-.7 1.7-1.2zm-847.1 292.3h463v103.7h-463z"/><path fill="none" d="M-1144-562.8h322.5v17.7H-1144z"/><text transform="translate(-1144.042 -552.507)" fill="#333" font-family="'Lato-Regular'" font-size="14">Hotel</text><path fill="none" d="M-1144-527.7h322.5v17.7H-1144z"/><text transform="translate(-1144.042 -517.303)"><tspan x="0" y="0" fill="#333" font-family="'Lato-Regular'" font-size="14">Hotel</tspan><tspan x="34.5" y="0" fill="#333" font-family="'Lato-Bold'" font-size="14">scombined</tspan></text><path fill="none" d="M-1144-504.1h322.5v17.7H-1144z"/><text transform="translate(-1144.042 -493.727)"><tspan x="0" y="0" fill="#333" font-family="'Lato-Regular'" font-size="14">Hotel</tspan><tspan x="34.5" y="0" fill="#333" font-family="'Lato-Bold'" font-size="14">s</tspan></text><path fill="none" d="M-1144-480.6h322.5v17.7H-1144z"/><text transform="translate(-1144.042 -470.15)"><tspan x="0" y="0" fill="#333" font-family="'Lato-Regular'" font-size="14">Hotel</tspan><tspan x="34.5" y="0" fill="#333" font-family="'Lato-Bold'" font-size="14"> california</tspan></text><path fill="none" d="M-1144-457h322.5v17.7H-1144z"/><text transform="translate(-1144.042 -446.574)"><tspan x="0" y="0" fill="#333" font-family="'Lato-Regular'" font-size="14">Hotel</tspan><tspan x="34.5" y="0" fill="#333" font-family="'Lato-Bold'" font-size="14">s4u</tspan></text><image overflow="visible" width="4608" height="3072" xlink:href="2C1BA8807FC8887.jpg" transform="translate(-1651.914 -56.658) scale(.3021)"/><path fill="#FFF" d="M-1224.5 371.1h86.6v31.7h-86.6z"/><path fill="#FFF" stroke="#B3B3B3" stroke-miterlimit="10" d="M-1131.2 371.1h463v31.7h-463z"/><g fill="none" stroke="#999" stroke-width="2" stroke-linecap="round" stroke-miterlimit="10"><circle cx="-684.6" cy="386.1" r="5.3"/><path d="M-681.3 390.2l3.6 3.9"/></g><path fill="#FFF" stroke="#E6E6E6" stroke-miterlimit="10" d="M-1154.7 373.2v29"/><path fill="#666" d="M-1145.8 387.3l-3-3h6z"/><path opacity=".58" fill="none" stroke="#CCC" stroke-miterlimit="10" d="M-267.2 817.7h-1516"/><text transform="translate(-482.612 841.238)" fill="#F2F2F2" font-family="'NHaasGroteskDSPro-35XLt'" font-size="12">EULA</text><text transform="translate(-423.186 841.237)" fill="#F2F2F2" font-family="'NHaasGroteskDSPro-35XLt'" font-size="12">Privacy Policy</text><text transform="translate(-331.7 841.237)" fill="#F2F2F2" font-family="'NHaasGroteskDSPro-35XLt'" font-size="12">Settings</text><text transform="translate(-1604.612 120.834)" fill="gray" font-family="'NHaasGroteskDSPro-35XLt'" font-size="14">Web</text><text transform="translate(-1534.024 120.833)" fill="#F2F2F2" font-family="'NHaasGroteskDSPro-35XLt'" font-size="14">Images</text><text transform="translate(-1453.7 120.833)" fill="#F2F2F2" font-family="'NHaasGroteskDSPro-35XLt'" font-size="14">videos</text><path fill="#F2F2F2" d="M-1131.2 407.8h463v103.7h-463z"/><path fill="none" d="M-1117 381.2h322.5v17.7H-1117z"/><text transform="translate(-1117.042 391.493)" fill="#333" font-family="'Lato-Regular'" font-size="14">Hotel</text><path fill="none" d="M-1117 416.3h322.5V434H-1117z"/><text transform="translate(-1117.042 426.697)"><tspan x="0" y="0" fill="#333" font-family="'Lato-Regular'" font-size="14">Hotel</tspan><tspan x="34.5" y="0" fill="#333" font-family="'Lato-Bold'" font-size="14">scombined</tspan></text><path fill="none" d="M-1117 439.9h322.5v17.7H-1117z"/><text transform="translate(-1117.042 450.273)"><tspan x="0" y="0" fill="#333" font-family="'Lato-Regular'" font-size="14">Hotel</tspan><tspan x="34.5" y="0" fill="#333" font-family="'Lato-Bold'" font-size="14">s</tspan></text><path fill="none" d="M-1117 463.4h322.5v17.7H-1117z"/><text transform="translate(-1117.042 473.85)"><tspan x="0" y="0" fill="#333" font-family="'Lato-Regular'" font-size="14">Hotel</tspan><tspan x="34.5" y="0" fill="#333" font-family="'Lato-Bold'" font-size="14"> california</tspan></text><path fill="none" d="M-1117 487h322.5v17.7H-1117z"/><text transform="translate(-1117.042 497.426)"><tspan x="0" y="0" fill="#333" font-family="'Lato-Regular'" font-size="14">Hotel</tspan><tspan x="34.5" y="0" fill="#333" font-family="'Lato-Bold'" font-size="14">s4u</tspan></text><text transform="translate(-472.417 144.879)" fill="#F2F2F2" font-family="'NHaasGroteskDSPro-35XLt'" font-size="40">22</text><circle fill="none" stroke="#F2F2F2" stroke-miterlimit="10" cx="-428.7" cy="117.2" r="3"/><g fill="none" stroke="#FFF" stroke-miterlimit="10"><path d="M-380 118c-.8 0-1.5.2-2.2.6-.4-2.2-2.3-3.9-4.6-3.8-4.9.1-5.1 4.8-5.1 4.9-1.8 0-3.7 1.5-3.7 3.3v.2c0 2.6 2.3 3.5 4.2 3.5h11.1c.1 0 4.6.1 4.5-4.4-.1-2.3-1.9-4.3-4.2-4.3z"/><path d="M-379.8 118.1c.2-2.1 2-3.8 4.2-3.8 2.3 0 4.2 1.9 4.2 4.2 0 2.3-1.9 4.2-4.2 4.2h-.5"/><path stroke-linecap="round" d="M-382 113.2l1.4 1.3m8.6 9.4l1.1 1.4m-4.3-14.8l-.1 1.8m5.8.5l-1.3 1.3m3.4 5.2h-1.8"/></g><path fill="none" stroke="#FFF" stroke-linecap="round" stroke-linejoin="round" stroke-miterlimit="10" d="M6.1 151.8c-.9 0-1.8.3-2.5.7-.5-2.5-2.7-4.4-5.3-4.4-5.6.1-5.8 5.6-5.8 5.6-2.1 0-4.2 1.7-4.2 3.8v.2c0 3 2.5 3.9 4.6 3.9H5.7c.1 0 5.3.2 5.2-5 0-2.6-2.1-4.8-4.8-4.8zm0 35.6c-.9 0-1.8.3-2.5.7-.5-2.5-2.7-4.4-5.3-4.4-5.6.1-5.8 5.6-5.8 5.6-2.1 0-4.2 1.7-4.2 3.8v.2c0 3 2.5 4.3 4.6 4.3H5.7c.1 0 5.3 0 5.2-5.2 0-2.5-2.1-5-4.8-5zM35.7 7.5c-1.7 0-3.3.5-4.7 1.3-.9-4.7-5-8.3-10-8.2C10.5.7 10.1 11 10.1 11.2c-3.9 0-7.8 3.2-7.8 7.1v.4c0 5.6 4.7 8 8.6 8h23.9c.3 0 10 0 9.8-9.7 0-5-3.9-9.5-8.9-9.5zM4.8 268.7h.9c.1 0 5.3.1 5.2-5 0-2.6-2.1-4.9-4.8-4.9-.9 0-1.8.3-2.5.7-.5-2.5-2.7-4.4-5.3-4.4-5.6.1-5.8 5.6-5.8 5.6-2.1 0-4.2 1.7-4.2 3.8v.2c0 3 2.5 4 4.6 4m11.9 35h.9c.1 0 5.3-.1 5.2-5.3 0-2.6-2.1-5.1-4.8-5.1-.9 0-1.8.2-2.5.6-.5-2.5-2.7-4.5-5.3-4.4-5.6.1-5.8 5.6-5.8 5.6-2.1 0-4.2 1.7-4.2 3.8v.2c0 3 2.5 4.3 4.6 4.3m17.9-72.7h2.9c.1 0 5.3.2 5.2-5 0-2.6-2.1-4.9-4.8-4.9-.9 0-1.8.3-2.5.7-.5-2.5-2.7-4.4-5.3-4.4-3.8.1-5.2 2.5-5.6 4.2"/><path fill="none" stroke="#FFF" stroke-miterlimit="10" d="M6.4 151.9c.2-2.5 2.3-4.4 4.8-4.4 2.7 0 4.8 2.2 4.8 4.8 0 2.7-2.2 4.8-4.8 4.8h-.5"/><path fill="none" stroke="#FFF" stroke-linecap="round" stroke-miterlimit="10" d="M3.9 146.4l1.6 1.4m9.8 10.8l1.3 1.6m-4.9-17l-.1 2.1m6.7.5l-1.5 1.5m3.9 6.1h-2.1"/><path fill="none" stroke="#FFF" stroke-linecap="round" stroke-linejoin="round" stroke-miterlimit="10" d="M68.1 151.8c-.9 0-1.8.3-2.5.7-.5-2.5-2.7-4.4-5.3-4.4-5.6.1-5.8 5.6-5.8 5.6-2.1 0-4.2 1.7-4.2 3.8v.2c0 3 2.5 3.9 4.6 3.9h12.8c.1 0 5.3.2 5.2-5 0-2.6-2.1-4.8-4.8-4.8z"/><text transform="translate(-423.667 144.667)" fill="#F2F2F2" font-family="'NHaasGroteskDSPro-35XLt'" font-size="40">c</text><image overflow="visible" width="1165" height="712" xlink:href="2C1BA8807FC8885.png" transform="translate(-210.167 -858.833)"/><g fill="none" stroke="#FFF" stroke-miterlimit="10"><circle cx="4.3" cy="111.2" r="6.1"/><path stroke-linecap="round" d="M4.3 98.2v3m0 19v4m11.5-19.8l-2.3 1.6m2.6 11l-2.4-1.5m-21-11.1L-5 106m-2.7 10.9l2.6-1.2"/></g><path fill="none" stroke="#FFF" stroke-linecap="round" stroke-linejoin="round" stroke-miterlimit="10" d="M6.1 224.2c-.9 0-1.8.3-2.5.7-.5-2.5-2.7-4.4-5.3-4.4-5.6.1-5.8 5.6-5.8 5.6-2.1 0-4.2 1.7-4.2 3.8v.2c0 3 2.5 4.5 4.6 4.5H5.7c.1 0 5.3-.1 5.2-5.3 0-2.6-2.1-5.1-4.8-5.1z"/><path fill="none" stroke="#FFF" stroke-linecap="round" stroke-miterlimit="10" d="M-4.7 268.2v2m3-4v2m5 0v2m-6 3v2m3-5v3"/><path fill="none" stroke="#FFF" stroke-linecap="round" stroke-linejoin="round" stroke-miterlimit="10" d="M-3.5 300.9l1.6 3.8-3-1.5 2.2 5.7m4.4-5.7l1 2.4-1.8-1 1.3 3.5"/><path fill="#FFF" d="M-1.8 323.7v-1.4c0-.3.2-.6.6-.5.3 0 .5.2.5.6v1.4l.2-.2.8-.8c.2-.2.6-.3.8 0 .2.2.2.6 0 .8l-1.6 1.6c-.1.1-.1.1-.1.2v5.1c.1 0 .1-.1.2-.1 1.4-.8 2.9-1.6 4.3-2.5.1-.1.2-.1.2-.2.2-.7.4-1.5.6-2.2.1-.4.5-.6.8-.4.2.1.3.4.3.7-.1.4-.2.8-.3 1.1v.2c.4-.2.8-.5 1.2-.7.1 0 .2-.1.2-.1.3-.1.5.1.6.3.1.3 0 .5-.2.7-.3.2-.7.4-1.1.6 0 0-.1.1-.2.1.1 0 .2.1.3.1.3.1.7.2 1 .3.3.1.4.3.4.6s-.2.5-.5.5h-.3c-.7-.2-1.5-.4-2.2-.6h-.2c-1.5.8-2.9 1.7-4.4 2.5l-.1.1c.1 0 .1.1.1.1 1.4.8 2.9 1.7 4.3 2.5.1 0 .2.1.3 0 .8-.2 1.5-.4 2.3-.6.2-.1.4 0 .6.2.1.2.2.4 0 .6-.1.1-.2.2-.3.2-.4.1-.8.2-1.3.4.1 0 .1.1.2.1.4.2.7.4 1.1.6.2.1.3.4.2.7-.1.2-.3.4-.6.4-.1 0-.2-.1-.3-.1-.4-.2-.8-.4-1.2-.7v.2c.1.4.2.7.3 1.1.1.4-.1.6-.4.7-.3.1-.6-.1-.7-.5-.2-.7-.4-1.5-.6-2.2 0-.1-.1-.1-.1-.2-1.5-.9-2.9-1.7-4.4-2.5h-.1v5.2c0 .1 0 .2.1.2l1.6 1.6c.2.2.2.3.2.6-.1.4-.6.5-.9.2l-.8-.8-.1-.1v1.4c0 .3-.2.6-.5.6s-.5-.2-.5-.5v-1.4l-.1.1-.9.9c-.3.3-.8.2-.9-.2-.1-.2 0-.4.2-.6.6-.5 1.1-1.1 1.7-1.6 0 0 .1-.1.1-.2v-5.2s-.1 0-.1.1c-1.5.8-2.9 1.7-4.4 2.5-.1 0-.1.1-.2.2-.2.8-.4 1.5-.6 2.3-.1.3-.4.5-.7.4-.3-.1-.4-.4-.4-.6l.3-1.2v-.1c-.4.2-.8.5-1.2.7-.1.1-.3.1-.5.1-.2-.1-.4-.2-.4-.5 0-.2.1-.4.3-.5.4-.2.7-.4 1.1-.6 0 0 .1-.1.2-.1-.4-.1-.7-.2-1.1-.3-.1 0-.2 0-.3-.1-.3-.1-.4-.4-.3-.7.1-.3.4-.5.6-.4.8.2 1.5.4 2.3.6h.3c1.4-.8 2.9-1.7 4.3-2.5 0 0 .1 0 .1-.1-.1 0-.1-.1-.2-.1-1.4-.8-2.9-1.6-4.3-2.5-.1-.1-.2-.1-.3 0-.7.2-1.5.4-2.2.6-.5.1-.8-.2-.7-.6 0-.2.2-.4.4-.4l1.2-.3h.1c-.1 0-.1-.1-.1-.1-.3-.2-.7-.4-1-.6-.3-.2-.4-.5-.2-.8.2-.3.5-.4.8-.2.4.2.8.4 1.2.7 0-.1-.1-.2-.1-.3-.1-.3-.2-.6-.3-1-.1-.4.1-.7.4-.8.3-.1.6.1.7.5.2.7.4 1.5.6 2.2 0 .1.1.2.1.2 1.5.9 3 1.7 4.4 2.5h.1v-5.2c0-.1 0-.2-.1-.3-.6-.5-1.1-1.1-1.6-1.6-.2-.2-.2-.3-.2-.5.1-.4.6-.6.9-.3.3.3.6.6.9.8-.3-.2-.3-.2-.2-.1z"/><path fill="none" stroke="#FFF" stroke-linecap="round" stroke-linejoin="round" stroke-miterlimit="10" d="M-4.2 375.7h8.7c.1 0 5.3.1 5.2-5.1 0-2.6-2.1-5-4.8-5-.9 0-1.8.2-2.5.7-.5-2.5-2.7-4.4-5.3-4.4-5.6.1-5.8 5.6-5.8 5.7m3.5 2.1h-13m11 5h-11m14-3h-7m84.7-253.5c-3.6-1.9-5-6.2-3.1-9.8.3-.6.6-1 1-1.5-2.4.2-4.7 1.6-5.9 3.9-1.9 3.6-.5 8 3.1 9.8 3 1.6 6.6.8 8.8-1.6-1.2.1-2.6-.1-3.9-.8zm-.5 39.7c2 .8 4.5-.3 6.1-2.1-1.1.1-2.2-.1-3.3-.7-3-1.5-4.1-5.2-2.6-8.2.2-.5.5-.9.9-1.2-2 .2-3.9 1.3-4.9 3.2-.5 1-.7 1.6-.8 2.6m-6.3-48.4l2.2 2.7m.2-2.5l-2.6 2.3m-3.3 4.4l2.3 2.7m.2-2.5l-2.7 2.3"/><g fill="none" stroke="#FFF" stroke-linecap="round" stroke-miterlimit="10"><path d="M125.8 108.7c3.7 0 3.7 2 7.4 2s3.7-2 7.4-2 3.7 2 7.4 2 3.7-2 7.4-2 3.7 2 7.4 2" opacity=".7"/><path d="M125.8 112.7c3.7 0 3.7 2 7.4 2s3.7-2 7.4-2 3.7 2 7.4 2 3.7-2 7.4-2 3.7 2 7.4 2m-37 2c3.7 0 3.7 2 7.4 2s3.7-2 7.4-2 3.7 2 7.4 2 3.7-2 7.4-2 3.7 2 7.4 2m-37 2c3.7 0 3.7 2 7.4 2s3.7-2 7.4-2 3.7 2 7.4 2 3.7-2 7.4-2 3.7 2 7.4 2"/></g></svg>