<svg xmlns="http://www.w3.org/2000/svg" width="46" height="28" viewBox="0 0 46 28"><g fill="none" stroke="#FFF" stroke-miterlimit="10"><path d="M25.4 9.9c.2-2.5 2.3-4.4 4.8-4.4 2.7 0 4.8 2.2 4.8 4.8s-2.2 4.8-4.8 4.8h-.5"/><path stroke-linecap="round" d="M22.9 4.4l1.6 1.4m9.8 10.8l1.3 1.6m-4.9-17l-.1 2.1m6.7.5l-1.5 1.5m3.9 6.1h-2.1"/><path stroke-linecap="round" stroke-linejoin="round" d="M22.8 19.7h.9c.1 0 5.3.1 5.2-5 0-2.6-2.1-4.9-4.8-4.9-.9 0-1.8.3-2.5.7-.5-2.6-2.7-4.5-5.3-4.5-5.6.1-5.8 5.6-5.8 5.6-2.1 0-4.2 1.7-4.2 3.8v.2c0 3 2.5 4 4.6 4"/><path stroke-linecap="round" d="M13.3 19.2v2m3-4v2m5 0v2m-6 3v2m3-5v3"/></g></svg>