<svg xmlns="http://www.w3.org/2000/svg" width="46" height="28" viewBox="0 0 46 28"><g fill="none" stroke="#FFF" stroke-linecap="round" stroke-miterlimit="10"><path stroke-linejoin="round" d="M25.8 18.7h1.1c.2 0 6.1.3 6-5.6-.1-3-2.5-5.5-5.5-5.5-1 0-2 .3-2.9.9-.6-2.9-3.1-5-6.1-5-6.4.1-7 6.4-7 6.5-2.4 0-5.1 2-5.1 4.4v.2c0 3.4 3.2 4.4 5.6 4.4"/><path d="M15.3 18.2v3m3-5v2m6 0v3m-7 3v2m4-5v3"/><path stroke-linejoin="round" d="M34.1 14.8c2.3.9 5.2-.3 7-2.4-1.3.1-2.6-.1-3.8-.8-3.4-1.8-4.7-6-3-9.4.3-.5.6-1 1-1.4-2.3.2-4.4 1.6-5.5 3.8-.6 1.2-.8 1.9-.9 3"/></g></svg>