<svg xmlns="http://www.w3.org/2000/svg" width="46" height="28" viewBox="0 0 46 28"><path fill="none" stroke="#FFF" stroke-linecap="round" stroke-linejoin="round" stroke-miterlimit="10" d="M28.8 19.7h1.4c.2 0 6.7-.4 6.6-6.9-.1-3.3-2.7-6.5-6-6.5-1.2 0-2.2.2-3.2.8-.6-3.1-3.4-5.6-6.7-5.6-7.1.1-7.3 7-7.3 7.1-2.6 0-5.2 2.1-5.2 4.8v.3c0 3.8 3 5.6 5.7 5.6"/><path fill="none" stroke="#FFF" stroke-linecap="round" stroke-linejoin="round" stroke-miterlimit="10" d="M18.6 15.8l2.1 4.9-3.8-1.9 2.7 7.1m5.6-7.2l1.3 3-2.4-1.2 1.7 4.5"/></svg>