<svg xmlns="http://www.w3.org/2000/svg" width="46" height="28" viewBox="0 0 46 28"><path fill="#FFF" d="M22.7 3.6V1.7c0-.4.3-.7.7-.7.4 0 .6.3.6.7v1.9l.2-.2 1-1c.3-.3.8-.3 1.1 0 .3.3.3.7-.1 1-.7.7-1.4 1.4-2.2 2.1.1.1 0 .2 0 .3v6.8c.1 0 .1-.1.2-.1 1.9-1.1 3.7-2.1 5.6-3.2.2-.2.3-.3.3-.4.3-1 .5-1.9.8-2.9.1-.5.6-.7 1.1-.5.3.2.4.5.3.9-.1.5-.3 1-.4 1.5v.2l1.5-.9c.1-.1.2-.1.3-.1.3-.1.6.1.8.4.1.3 0 .7-.3.9-.5.3-.9.5-1.4.8-.1 0-.1.1-.2.1.2.1.3.1.4.1.4.1.9.2 1.3.4.3.1.5.4.5.8 0 .3-.3.6-.6.6h-.3c-1-.3-1.9-.5-2.9-.8h-.3L25 13.7s-.1 0-.1.1c.1 0 .1.1.2.1 1.9 1.1 3.7 2.2 5.6 3.2.1.1.3.1.4 0 1-.3 2-.5 3-.8.3-.1.6 0 .7.3.2.3.2.5 0 .8-.1.1-.3.3-.4.3-.5.2-1.1.3-1.7.5.1.1.2.1.2.1.5.3.9.5 1.4.8.3.2.4.5.3.9-.1.3-.4.5-.8.5-.1 0-.2-.1-.3-.1l-1.5-.9v.2c.1.5.3 1 .4 1.5.1.5-.1.8-.5 1-.4.1-.8-.1-.9-.6-.3-1-.5-1.9-.8-2.9 0-.1-.1-.2-.2-.2-1.9-1.1-3.8-2.2-5.8-3.3h-.1v6.7c0 .1.1.2.1.3l2.1 2.1c.2.2.3.5.2.7-.1.5-.8.7-1.2.3l-1.1-1.1-.2-.2v1.9c0 .4-.3.7-.7.7-.4 0-.6-.3-.7-.7V24c-.1 0-.1.1-.1.1-.4.4-.8.8-1.2 1.1-.4.4-1.1.2-1.2-.3-.1-.3 0-.5.2-.7.7-.7 1.5-1.4 2.2-2.1.1-.1.1-.2.1-.3V15c-.1 0-.1.1-.2.1l-5.7 3.3c-.1.1-.2.2-.2.3-.3 1-.6 2-.8 3-.1.4-.5.6-.9.5-.4-.1-.6-.5-.5-.8.1-.5.3-1.1.4-1.6v-.2c-.5.3-1.1.6-1.6.9-.2.1-.4.2-.6.1-.3-.1-.5-.3-.5-.6s.1-.5.3-.7c.5-.3.9-.5 1.4-.8.1 0 .1-.1.2-.1-.5-.1-1-.3-1.4-.4-.1 0-.3-.1-.4-.1-.4-.1-.6-.5-.5-.9.1-.4.5-.6.8-.5 1 .3 2 .5 3 .8h.3l5.7-3.3s.1-.1.2-.1c-.1-.1-.1-.1-.2-.1-1.9-1.1-3.7-2.1-5.6-3.2-.1-.1-.2-.1-.4 0-1 .3-1.9.5-2.9.8-.6.2-1.1-.3-1-.8.1-.3.2-.5.5-.5.5-.1 1-.3 1.6-.4h.2c.2-.4.2-.5.1-.5-.5-.3-.9-.5-1.4-.8-.4-.2-.5-.7-.3-1 .2-.4.6-.5 1-.2.5.3 1 .6 1.6.9 0-.2-.1-.3-.1-.4-.1-.4-.2-.8-.3-1.3-.1-.5.1-.9.5-1 .4-.1.8.1.9.6.3 1 .5 1.9.8 2.9 0 .1.1.2.2.3 1.9 1.1 3.9 2.2 5.8 3.3h.1V5.8c0-.1-.1-.2-.2-.3l-2.1-2.1c-.2-.2-.3-.4-.3-.7.1-.5.8-.7 1.2-.3.4.4.8.7 1.1 1.1.2 0 .2 0 .3.1z"/></svg>