<svg xmlns="http://www.w3.org/2000/svg" width="46" height="28" viewBox="0 0 46 28"><path fill="none" stroke="#FFF" stroke-linecap="round" stroke-miterlimit="10" d="M3.2 6.8c4 0 4 2 7.9 2 4 0 4-2 7.9-2 4 0 4 2 7.9 2 4 0 4-2 7.9-2 4 0 4 2 7.9 2" opacity=".7"/><path fill="none" stroke="#FFF" stroke-linecap="round" stroke-miterlimit="10" d="M3.2 11.1c4 0 4 2 7.9 2 4 0 4-2 7.9-2 4 0 4 2 7.9 2 4 0 4-2 7.9-2 4 0 4 2 7.9 2M3.2 15.4c4 0 4 2 7.9 2 4 0 4-2 7.9-2 4 0 4 2 7.9 2 4 0 4-2 7.9-2 4 0 4 2 7.9 2M3.2 19.7c4 0 4 2 7.9 2 4 0 4-2 7.9-2 4 0 4 2 7.9 2 4 0 4-2 7.9-2 4 0 4 2 7.9 2"/></svg>