<svg xmlns="http://www.w3.org/2000/svg" width="30" height="30" viewBox="0 0 30 30">
    <path fill="#FFFFFF" fill-rule="evenodd" d="M17.158 16.995l-.135.066.784 2.678.762-.858-1.411-1.886zm4.975-3.311h-6.01c.08.91.177 1.677 1.374 1.526.229-.03.57.273.748.507.476.624.891 1.294 1.488 2.179l2.4-4.212zm-14.463.53h3.149c-.404 2.035-2.874 2.458-4.26 1.945-1.936-.718-2.906-2.93-2.057-4.846.908-2.048 3.258-2.947 5.62-1.38L11.77 8.22C9.9 6.375 6.95 6.076 4.563 7.524c-2.396 1.452-3.512 4.425-2.659 7.08.845 2.632 3.461 4.45 6.16 4.279 2.94-.186 4.996-2.005 5.48-4.849.357-2.11.3-2.18-1.766-2.18H7.67v2.36zm8.967 14.03l.133.256h.816c2.966 0 5.933.001 8.9-.001 1.535-.001 2.012-.477 2.013-2.01.002-6.152.001-12.304 0-18.456 0-1.546-.475-2.032-1.99-2.033-3.934-.003-7.87-.002-11.804 0-.272.001-.543.026-.92.045.562 1.925 1.094 3.777 1.656 5.62.048.156.297.348.459.355.831.036 1.665.017 2.535.017l.12-1.486h1.464l.075 1.509h5.354v1.705c-1.922-.886-2.076.636-2.556 1.746-.087.2-.163.41-.279.592-.594.94-1.2 1.87-1.881 2.93l3.865 3.898-1.033 1.25-3.873-4.104c-1.306.702-1.525 1.658-.951 2.907.27.589.35 1.262.58 1.873.182.485.071.802-.303 1.137-.813.729-1.589 1.498-2.38 2.25zm-1.625 1.754l-1.525-4.5h-9.86C1.103 25.498 0 24.383 0 21.833c0-6.12-.002-12.24 0-18.361C.001 1.189 1.18.003 3.447.002 6.256-.002 9.065 0 11.98 0l1.355 4.5h1.035c4.122 0 8.244-.005 12.366.002 2.017.004 3.258 1.251 3.26 3.278.005 6.307.005 12.615 0 18.923-.001 2.036-1.233 3.287-3.245 3.292-3.9.008-7.799.002-11.739.002z"/>
</svg>
