<svg xmlns="http://www.w3.org/2000/svg" width="40" height="13"><g fill="#9B9B9B" fill-rule="evenodd"><path d="M3.646 4.063c-.018.268-.026.54-.075.802a1.275 1.275 0 0 1-.403.708.87.87 0 0 1-.504.241c-.45.048-.77-.195-.836-.66a1.852 1.852 0 0 1 .024-.583c.05-.275.225-.475.461-.623.327-.204.94-.287 1.335-.26 0 .124.007.25-.002.375M5.87 5.855a1.805 1.805 0 0 0-.144-.203 1.607 1.607 0 0 1-.348-1.057c.007-.709.005-1.418.002-2.127a8.638 8.638 0 0 0-.028-.737C5.3 1.156 5.044.699 4.542.394a2.352 2.352 0 0 0-.738-.292C3.61.06 3.413.033 3.217 0h-.52c-.183.027-.368.047-.55.082-.481.093-.923.275-1.29.61C.5 1.015.299 1.422.21 1.89c-.025.132.054.244.197.26.387.046.774.088 1.161.121.055.005.126-.039.169-.081a.358.358 0 0 0 .073-.16c.11-.409.406-.668.828-.709a1.3 1.3 0 0 1 .347.008c.377.066.584.272.635.653.032.232.026.469.037.707-.29.031-.558.058-.825.09-.55.065-1.097.139-1.602.384C.525 3.506.113 4.064.02 4.85c-.004.029-.013.057-.019.086v.42c.007.038.016.076.021.115.067.52.271.965.713 1.273.298.208.635.3.994.317.668.033 1.284-.102 1.8-.558.121-.107.24-.217.366-.331.045.065.083.132.132.19.16.186.316.376.49.55.154.155.269.147.434.005.29-.25.58-.5.868-.752.108-.093.125-.184.051-.309m34.066-4.074c-.037-.309-.087-.615-.24-.89-.305-.547-.79-.801-1.401-.827-.45-.019-.868.074-1.21.391-.24.222-.396.499-.523.794-.013.03-.03.058-.044.086-.02-.299-.02-.588-.02-.878 0-.173-.082-.259-.254-.26h-1.08c-.187.001-.268.082-.268.268 0 2.077 0 4.155.002 6.233 0 .197.08.276.28.276h1.09c.25 0 .32-.069.32-.32 0-1.081-.002-2.163.001-3.245.001-.223.009-.447.033-.668.031-.29.1-.573.284-.809.196-.252.457-.36.776-.294.297.06.46.267.515.546.05.246.078.5.08.75.007 1.256.002 2.511.002 3.767 0 .192.08.273.272.273.38 0 .76-.002 1.139.002.113.001.2-.034.267-.124V1.898c-.007-.039-.017-.077-.021-.116m-15.258 7.08a.902.902 0 0 0-.288.061c-1.182.492-2.399.87-3.65 1.138-.757.162-1.52.292-2.29.357-.5.042-1.001.073-1.502.098a9.94 9.94 0 0 1-.828 0c-.425-.013-.85-.024-1.274-.06a31.69 31.69 0 0 1-1.593-.179 19.323 19.323 0 0 1-2.743-.598 20.384 20.384 0 0 1-4.528-1.917.51.51 0 0 0-.127-.056c-.072-.018-.153-.008-.182.064a.28.28 0 0 0 .005.185c.018.049.07.087.112.124a15.423 15.423 0 0 0 5.438 3.148c.743.246 1.5.441 2.271.565.439.07.882.112 1.323.168.114.014.228.031.342.047h2.017c.032-.01.062-.023.094-.027.478-.055.959-.092 1.433-.168a15.697 15.697 0 0 0 3.115-.832c1.043-.398 2.033-.897 2.936-1.558a.704.704 0 0 0 .13-.12.253.253 0 0 0 .036-.282c-.048-.1-.135-.165-.247-.158m-4.811-5.185c-.012.447.039.885-.108 1.308-.093.266-.235.5-.468.667-.328.235-.756.228-1.013-.018-.18-.172-.24-.395-.254-.633-.036-.615.281-1.047.877-1.21.31-.085.627-.11.966-.114m-.074-.981c-.188.024-.377.041-.566.062-.476.054-.951.11-1.41.258-.487.157-.912.411-1.208.838-.425.615-.482 1.293-.286 1.995.166.592.56.99 1.155 1.132.843.2 1.634.083 2.309-.512.109-.097.214-.197.326-.3.049.071.088.142.14.201.162.188.323.379.498.556.131.132.256.127.397.006.298-.255.594-.513.89-.77.105-.091.122-.18.053-.302a1.778 1.778 0 0 0-.15-.212 1.604 1.604 0 0 1-.345-1.048c.007-.71.005-1.418.002-2.127a9.575 9.575 0 0 0-.024-.719c-.049-.586-.305-1.053-.818-1.364a2.356 2.356 0 0 0-.73-.288C19.833.06 19.636.034 19.44 0h-.52c-.028.006-.057.014-.086.018-.216.035-.437.052-.648.106-.918.237-1.548.772-1.749 1.735-.034.165.042.276.208.295.37.041.741.08 1.112.12.113.011.191-.033.24-.139.02-.045.03-.094.043-.142a.854.854 0 0 1 .447-.56 1.12 1.12 0 0 1 .767-.095c.314.067.524.258.574.576.038.238.029.483.035.726 0 .019-.043.053-.07.056M7.095 6.975h1.109c.23 0 .305-.074.305-.303l.001-3.496c0-.183.007-.366.022-.548.02-.23.062-.456.186-.657.173-.281.441-.359.75-.33a.6.6 0 0 1 .562.463c.055.196.095.404.096.607.008 1.328.004 2.657.005 3.985 0 .195.083.279.28.28h1.108c.23 0 .306-.076.306-.304 0-1.175-.002-2.35.002-3.526 0-.232.015-.466.042-.696.064-.552.486-.849.95-.796.288.034.495.176.563.457.044.182.061.375.062.563.005 1.331.002 2.663.001 3.995 0 .236.072.306.311.306h1.08c.228 0 .302-.075.303-.307l.001-3.835c0-.32.008-.64 0-.959-.011-.365-.059-.726-.263-1.041-.303-.469-.75-.704-1.296-.759-.74-.074-1.499.255-1.849 1.059-.012.028-.026.055-.049.104-.31-.736-.801-1.188-1.622-1.175-.81.013-1.324.435-1.627 1.165-.001-.032-.004-.063-.004-.095V.473C8.428.283 8.345.2 8.155.198H7.098c-.202 0-.283.083-.283.287v6.212c0 .196.083.278.28.278M32.004 5.01a1.622 1.622 0 0 1-.242.496c-.329.433-.957.394-1.249-.064a1.924 1.924 0 0 1-.262-.79 8.86 8.86 0 0 1-.023-2.14c.026-.242.086-.478.199-.697.228-.444.632-.535 1.038-.412.218.066.356.227.444.432.118.279.166.574.193.873.027.301.037.604.054.906-.013.47-.012.942-.152 1.395M30.644.106c-.844.146-1.436.643-1.828 1.39-.34.648-.453 1.35-.46 2.074-.001.717.132 1.381.391 1.95.548 1.205 1.66 1.788 2.952 1.529.803-.161 1.37-.65 1.767-1.35a3.891 3.891 0 0 0 .483-1.671c.058-.826-.037-1.629-.389-2.387C33.015.466 31.921-.114 30.645.106m-3.151 5.127c-.533-.283-1.105-.418-1.703-.456-.18-.011-.363-.001-.545-.001l-.005-.037.049-.073 1.633-2.33.577-.827a.712.712 0 0 0 .137-.459c-.01-.202-.002-.406-.003-.609-.002-.181-.082-.26-.264-.26-1.332-.001-2.664-.001-3.996 0-.183 0-.262.077-.263.26a99.94 99.94 0 0 0 0 .819c0 .209.072.279.284.279h1.948c.035 0 .07.003.12.006l-.067.102c-.771 1.105-1.54 2.212-2.315 3.315a1.083 1.083 0 0 0-.203.634c-.002.307-.001.613-.001.92 0 .268.137.351.377.232.883-.438 1.814-.567 2.786-.423.491.073.957.225 1.4.449.147.075.29-.006.313-.17a.524.524 0 0 0 .004-.07c0-.29-.002-.58 0-.87a.449.449 0 0 0-.263-.431"/><path d="M26.397 7.401c-.343-.089-.693-.12-1.157-.12-.3-.002-.705.045-1.103.144a3.267 3.267 0 0 0-1.133.501c-.07.051-.149.114-.111.213.037.1.137.066.211.06.35-.03.7-.077 1.05-.097.331-.02.664-.024.995-.013.157.005.314.054.465.1.13.038.204.137.23.275.045.236-.006.463-.057.69-.136.601-.365 1.172-.589 1.745a.537.537 0 0 0-.04.143c-.007.088.045.137.13.112a.492.492 0 0 0 .17-.097c.295-.25.531-.55.719-.887.385-.69.624-1.423.643-2.217.009-.367-.07-.46-.423-.552"/></g></svg>