<svg xmlns="http://www.w3.org/2000/svg" width="15" height="15"><path fill="#FFF" fill-rule="evenodd" d="M14.61 12.617c.26.287.39.625.39 1.016 0 .39-.13.716-.39.976-.261.26-.587.391-.977.391s-.73-.13-1.016-.39L7.5 9.491 2.383 14.61a1.412 1.412 0 0 1-1.953 0 1.265 1.265 0 0 1-.43-.976c0-.39.143-.73.43-1.016L5.508 7.5.43 2.383A1.389 1.389 0 0 1 0 1.367C0 .977.143.651.43.391a1.412 1.412 0 0 1 1.953 0L7.5 5.508 12.617.39A1.46 1.46 0 0 1 13.633 0c.39 0 .716.13.976.39.26.261.391.587.391.977s-.13.73-.39 1.016L9.491 7.5l5.117 5.117z"/></svg>