<svg xmlns="http://www.w3.org/2000/svg" viewBox="0 0 30 30">
    <g fill="none" fill-rule="evenodd">
        <circle cx="15" cy="15" r="15" fill="#000000"/>
        <path fill="#FFFFFF" d="M15.419 10.717a.71.71 0 0 0 .717.647h1.534l-6.306 6.306v-1.534a.71.71 0 0 0-.69-.696.709.709 0 0 0-.674.696v3.182c0 .357.325.682.682.682h3.182a.71.71 0 0 0 .691-.682.709.709 0 0 0-.691-.682h-1.542l6.314-6.314v1.542a.709.709 0 0 0 .682.691c.36 0 .687-.331.682-.691v-3.182a.708.708 0 0 0-.682-.682h-3.182a.703.703 0 0 0-.717.717"/>
    </g>
</svg>
