<svg xmlns="http://www.w3.org/2000/svg" width="35" height="12" viewBox="0 0 35 12">
    <g fill="#FFFFFF" fill-rule="evenodd">
        <path d="M8.873 6.087C8.698 5.299 8.26 4.72 7.521 4.38a3.594 3.594 0 0 0-1.48-.31 73.374 73.374 0 0 0-1.943.002c-.205.003-.41.047-.614.079-.074.012-.146.046-.228.072V.583H.576V11.75h2.685v-.095-4.38c0-.44.308-.75.748-.752.502-.001 1.005-.005 1.508.004a.847.847 0 0 1 .35.078c.275.135.399.37.399.677-.002 1.457 0 2.914 0 4.371v.1h2.689v-.085V6.93c0-.284-.02-.566-.082-.843M19.298 4.097h-2.683V8.52c0 .062 0 .125-.01.186-.067.364-.354.596-.741.597-.5.002-1 .001-1.5 0a.875.875 0 0 1-.17-.013c-.351-.07-.582-.359-.582-.73V4.095h-2.689v4.723c0 .312.033.62.111.922.172.656.525 1.182 1.106 1.544.515.322 1.087.458 1.685.464.95.01 1.9-.003 2.85-.012.167-.001.336-.018.5-.047.666-.116 1.207-.437 1.596-.995.368-.527.524-1.124.528-1.757.009-1.592.004-3.184.004-4.776 0-.023-.003-.045-.005-.064M31.773 4.095V8.545c0 .452-.301.757-.753.758-.5.002-1 .005-1.5-.002a.84.84 0 0 1-.33-.067c-.29-.133-.42-.372-.42-.69V4.095h-2.689v4.687c0 .306.025.61.098.908.172.704.55 1.261 1.18 1.632.507.297 1.063.421 1.643.426.944.007 1.888-.004 2.833-.013.162-.001.326-.018.486-.045.776-.134 1.368-.538 1.752-1.23.29-.52.389-1.086.389-1.674V4.095h-2.689zM21.373 11.751h2.69V.577h-2.69z"/>
    </g>
</svg>
