<svg xmlns="http://www.w3.org/2000/svg" width="45" height="12" viewBox="0 0 45 12">
    <g fill="#9B9B9B" fill-rule="evenodd">
        <path d="M44.566.003c-.07.163-.132.31-.196.456-.732 1.698-1.465 3.397-2.2 5.095a.266.266 0 0 0-.006.222c.788 2.026 1.574 4.052 2.36 6.078.013.033.022.066.039.115l-.636-.085c-.459-.062-.917-.126-1.376-.183-.089-.01-.136-.041-.168-.127-.426-1.105-.855-2.21-1.284-3.314-.011-.03-.023-.058-.046-.112l-1.383 3.204-1.966-.205c.023-.059.039-.105.058-.15.756-1.753 1.513-3.508 2.272-5.26a.268.268 0 0 0 .004-.224c-.7-1.8-1.398-3.6-2.096-5.402l-.04-.108h.3c.535 0 1.07.002 1.604-.003.092 0 .135.025.168.113.374.973.752 1.944 1.128 2.916l.045.108.055-.113c.42-.97.84-1.94 1.254-2.911.038-.087.08-.113.173-.113.602.005 1.204.003 1.806.003h.13zM6.089 11.223l-1.018.112c-.3.033-.602.064-.902.103-.092.012-.135-.006-.168-.101-.687-1.983-1.378-3.965-2.069-5.946a.314.314 0 0 0-.063-.117v6.44L0 11.97V.008C.038.006.072.003.107.003c.52 0 1.04.002 1.561-.003.09 0 .12.032.149.11.784 2.179 1.57 4.357 2.356 6.535a.146.146 0 0 0 .042.066v-6.7h1.874v11.212zM13.11.009v1.85H9.789v2.53h.125c.76-.005 1.518-.008 2.277-.018.105-.002.13.03.129.132-.005.53-.002 1.062-.002 1.593v.133H9.788v2.807l3.32-.226v1.838l-5.2.387V.009h5.203zM21.34.008h5.22V1.86h-3.346v2.418h2.532v1.85H23.21v4.264h-1.872zM18.166 10.451l-1.878.058V1.866h-1.96V.011h5.794V1.86h-1.956v8.592zM27.78.005h1.868V8.574c0 .151 0 .148.148.156l3.04.173c.006 0 .013.004.027.008v1.838l-.997-.06c-.515-.03-1.03-.061-1.546-.085-.811-.038-1.623-.07-2.434-.102-.084-.004-.114-.027-.114-.117.002-3.425.002-6.85.002-10.276 0-.031.003-.063.005-.104M36.291.009v11.006l-1.863-.153V.009h1.863z"/>
    </g>
</svg>
