<?xml version="1.0" encoding="UTF-8"?>
<svg width="30px" height="30px" viewBox="0 0 30 30" version="1.1" xmlns="http://www.w3.org/2000/svg" xmlns:xlink="http://www.w3.org/1999/xlink">
    <!-- Generator: Sketch 49 (51002) - http://www.bohemiancoding.com/sketch -->
    <title>refresh</title>
    <desc>Created with Sketch.</desc>
    <defs></defs>
    <g id="Films" stroke="none" stroke-width="1" fill="none" fill-rule="evenodd">
        <g id="full-screen-mode" transform="translate(-1180.000000, -75.000000)">
            <g id="refresh" transform="translate(1180.000000, 75.000000)">
                <circle id="Oval-Copy" fill="#FFFFFF" cx="15" cy="15" r="15"></circle>
                <path d="M19.8012868,16.2383554 C19.4070526,16.1163726 18.9922574,16.3488976 18.8745534,16.7578262 C18.3679788,18.517224 16.8020676,20.2905362 14.4420262,20.2905362 C12.2071386,20.2905362 9.82325843,18.3657117 9.82325843,15.4978005 C9.82325843,13.1787348 11.6782152,10.7050647 14.4420262,10.7050647 C15.499426,10.7185153 16.5209187,11.103944 17.3397815,11.7981177 L15.7008639,11.7718349 C15.2896446,11.7684336 14.9533685,12.11181 14.9499417,12.5386726 C14.9468128,12.9655353 15.2777252,13.3144774 15.6889445,13.3178787 L19.0578141,13.3719903 C19.258805,13.3764738 19.4527933,13.2946881 19.5940382,13.1462679 C19.736326,12.9983115 19.8148451,12.7970166 19.8115672,12.588146 L19.7595689,9.09408708 C19.7530132,8.66706978 19.4140552,8.32663094 19.0026869,8.33343353 C18.5911696,8.34023612 18.2630881,8.69180648 18.2696438,9.11882378 L18.2994423,10.6030258 C17.2128399,9.67369889 15.8500054,9.16242221 14.4420262,9.15592883 C10.7887299,9.15592883 8.33333333,12.4335417 8.33333333,15.4947084 C8.33333333,18.5558751 10.78724,21.8333333 14.4420262,21.8333333 C17.5708689,21.8333333 19.6388849,19.505146 20.3033915,17.195202 C20.4179668,16.7873556 20.193733,16.3598745 19.8012868,16.2383554" id="Fill-1" fill="#000000"></path>
            </g>
        </g>
    </g>
</svg>