<svg xmlns="http://www.w3.org/2000/svg" width="12" height="12"><path fill="#FFF" fill-rule="evenodd" d="M2.903 8.978A4.045 4.045 0 0 0 6 10.021l-.24 1.603a5.556 5.556 0 0 1-3.618-1.228 5.743 5.743 0 0 1-1.45-1.747c-1.163-2.163-.861-4.93.912-6.776L.53.78C.47.72.513.61.6.597L4.436.001a.096.096 0 0 1 .108.11l-.585 3.9c-.014.09-.12.133-.18.073L2.707 2.993C1.545 4.21 1.267 5.977 1.86 7.462c.225.56.567 1.081 1.042 1.516zm7.493.774l1.074 1.093c.057.06.017.169-.07.183l-3.835.596a.096.096 0 0 1-.108-.11l.585-3.9c.014-.09.12-.133.18-.073l1.071 1.091c1.162-1.218 1.44-2.984.846-4.469A4.047 4.047 0 0 0 6 1.603L6.24.002A5.556 5.556 0 0 1 9.859 1.23a5.76 5.76 0 0 1 1.45 1.747c1.163 2.163.861 4.93-.912 6.776z"/></svg>