<svg width="30" height="30" xmlns="http://www.w3.org/2000/svg"><g fill="none" fill-rule="evenodd"><circle cx="15" cy="15" r="15" fill="#FFCA00"/><path d="M20.535 8.469l-3.045 3.048-.086-2.836A.703.703 0 1 0 16 8.725l.137 4.462v.054a.74.74 0 0 0 .009.07.685.685 0 0 0 .021.069c0 .02.012.04.02.06.01.024.023.048.036.072.009.015.016.031.027.047.05.076.115.14.19.192l.048.026a.668.668 0 0 0 .07.037c.02 0 .04.014.06.02a.447.447 0 0 0 .139.029h.054l4.455.137h.021a.702.702 0 0 0 .021-1.406l-2.832-.086 3.05-3.046a.704.704 0 0 0-.993-.995l.002.002zM9.465 21.531l3.045-3.048.086 2.836A.703.703 0 1 0 14 21.275l-.137-4.461v-.055a.725.725 0 0 0-.009-.07.671.671 0 0 0-.02-.069c0-.019-.013-.04-.02-.06a.734.734 0 0 0-.037-.071c-.009-.016-.016-.032-.027-.048a.701.701 0 0 0-.19-.191c-.016-.011-.032-.018-.048-.027a.686.686 0 0 0-.07-.037c-.02 0-.04-.014-.06-.019a.436.436 0 0 0-.138-.03h-.055L8.734 16h-.021a.703.703 0 0 0-.022 1.406l2.833.086-3.05 3.047a.704.704 0 0 0 .993.994l-.002-.002z" fill="#000"/></g></svg>