<svg xmlns="http://www.w3.org/2000/svg" width="23" height="20" viewBox="0 0 23 20">
    <path fill="#FFF" fill-rule="evenodd" d="M8.656 8.571l.868-1.315-2.929-4.399H0v1.53h5.88l2.776 4.184zm11.91-4.49l-1.75 1.588a.6.6 0 0 0-.18.363.461.461 0 0 0 .112.363l.135.181a.517.517 0 0 0 .382.159c.15 0 .277-.053.381-.159l2.852-2.608h.011c.008 0 .011-.007.011-.022l.18-.182a.443.443 0 0 0 .157-.351.514.514 0 0 0-.157-.374l-.18-.182h-.022v-.023L19.6.16a.98.98 0 0 0-.19-.114.49.49 0 0 0-.202-.045.552.552 0 0 0-.37.159l-.136.181a.461.461 0 0 0-.112.363.6.6 0 0 0 .18.363l1.706 1.564H15.29L6.085 15.692H0v1.45h6.826l9.205-13.06h4.536zm1.948 11.825h-.023v-.024l-2.95-2.825a.8.8 0 0 0-.252-.144.439.439 0 0 0-.286 0c-.1.032-.18.08-.24.144l-.138.191a.436.436 0 0 0-.114.24.536.536 0 0 0 .034.287.735.735 0 0 0 .15.24l1.76 1.675-4.551-.024-2.631-4.237-.892 1.34 2.768 4.43 5.352.024-1.761 1.652a.642.642 0 0 0-.183.383.5.5 0 0 0 .114.383l.137.191a.35.35 0 0 0 .172.132.621.621 0 0 0 .412 0 .498.498 0 0 0 .194-.132l2.905-2.753h.012c.007 0 .011-.008.011-.024l.183-.191a.476.476 0 0 0 .16-.372.553.553 0 0 0-.16-.395l-.183-.191z"/>
</svg>
