<svg xmlns="http://www.w3.org/2000/svg" width="19" height="16"><path fill-rule="evenodd" d="M6.925 6.857l.694-1.052-2.343-3.52H0V3.51h4.703l2.222 3.347zm9.529-3.592l-1.402 1.27a.48.48 0 0 0-.143.29.37.37 0 0 0 .09.29l.107.146a.414.414 0 0 0 .306.127c.12 0 .221-.043.305-.127l2.281-2.086h.01c.005 0 .008-.006.008-.019l.144-.145a.355.355 0 0 0 .126-.28.411.411 0 0 0-.126-.3l-.144-.145h-.018v-.018L15.681.127a.784.784 0 0 0-.153-.09.392.392 0 0 0-.161-.037.441.441 0 0 0-.296.127l-.108.145a.37.37 0 0 0-.09.29.48.48 0 0 0 .144.29l1.365 1.252h-4.15l-7.364 10.45H0v1.16h5.46l7.365-10.449h3.629zm1.557 9.46h-.018v-.02l-2.36-2.26a.64.64 0 0 0-.202-.115.35.35 0 0 0-.229 0 .45.45 0 0 0-.192.115l-.11.154a.35.35 0 0 0-.091.191.43.43 0 0 0 .027.23c.03.077.07.14.12.191l1.408 1.341-3.641-.019-2.105-3.39-.713 1.072 2.214 3.544 4.282.02-1.41 1.32a.513.513 0 0 0-.146.307.4.4 0 0 0 .092.307l.11.153a.28.28 0 0 0 .137.105.497.497 0 0 0 .33 0 .399.399 0 0 0 .155-.105l2.324-2.203h.01c.005 0 .008-.006.008-.019l.147-.153a.38.38 0 0 0 .128-.297.442.442 0 0 0-.128-.316l-.147-.153z"/></svg>