<svg xmlns="http://www.w3.org/2000/svg" width="34" height="10" viewBox="0 0 34 10">
    <g fill="#9B9B9B" fill-rule="evenodd">
        <path d="M16.505.458h-1.323c-.11 0-.11 0-.11.111 0 1.721 0 3.442-.002 5.163 0 .136-.01.273-.032.407-.186 1.197-1.379 1.543-2.124 1.264a1.6 1.6 0 0 1-1.039-1.49c-.001-1.784-.001-3.568.001-5.352 0-.083-.022-.106-.104-.105-.441.004-.883.009-1.324 0a.582.582 0 0 0-.582.582c.005 1.642.003 3.284.008 4.926 0 .192.016.387.048.576a3.563 3.563 0 0 0 2.782 2.876l.347.07h.795l.23-.04a3.58 3.58 0 0 0 2.203-1.287c.501-.611.785-1.31.79-2.105.01-1.674.003-3.349.003-5.024a.568.568 0 0 0-.567-.572M8.91.47H8.9L7.62.472a.83.83 0 0 0-.206.021c-.22.058-.34.222-.412.433l-.45 1.31c-.486 1.417-.97 2.834-1.457 4.251-.016.046-.031.094-.058.135-.015.024-.052.049-.076.046-.022-.003-.043-.04-.058-.067-.014-.026-.02-.056-.03-.085L2.967.928C2.854.602 2.679.471 2.344.471c-.43-.001-.86.002-1.29-.002C.918.468.81.495.758.637v.05C.764.692.77.697.773.704c.123.357.245.714.369 1.07.678 1.946 1.356 3.892 2.037 5.837.108.31.208.625.349.918.293.614.797.915 1.455.955.356.022.707-.028 1.057-.092.084-.015.126-.048.155-.133.295-.864.591-1.727.893-2.589.684-1.95 1.37-3.898 2.06-5.846.073-.202.034-.367-.239-.354M33.347 1.005A.558.558 0 0 0 32.8.46c-.456-.002-.911 0-1.367-.002-.072 0-.093.021-.092.093.006.428.009.856.009 1.284 0 .742-.005 1.484-.006 2.226-.002.6 0 1.2-.002 1.8 0 .087-.005.175-.02.26-.161.905-.775 1.322-1.55 1.372-.508.033-.921-.186-1.253-.564-.278-.316-.376-.697-.376-1.11 0-1.746-.002-3.492-.003-5.237 0-.123 0-.123-.125-.123-.428 0-.857.009-1.285-.002a.593.593 0 0 0-.6.601c.006 1.653.001 3.306.006 4.959 0 .184.024.37.056.55.118.663.406 1.245.858 1.742.547.6 1.22.975 2.016 1.125.084.016.167.036.25.054h.815c.02-.007.039-.017.059-.022.185-.037.374-.063.555-.113.872-.24 1.544-.76 2.046-1.509.335-.498.545-1.05.55-1.65.016-1.73.008-3.459.007-5.188M23.069 6.24c-.392.735-.994 1.187-1.822 1.3-.222.03-.449.025-.674.03-.269.004-.538.003-.807.001-.13 0-.146-.018-.146-.148v-2.48-2.48c0-.144.01-.155.152-.155.302 0 .603-.003.905.003.397.007.793.026 1.165.188.772.336 1.255.93 1.454 1.746.167.687.11 1.364-.227 1.996m1.94-3.278c-.441-.91-1.139-1.56-2.015-2.028-.64-.341-1.331-.472-2.049-.475-.883-.003-1.766.006-2.649-.005a.61.61 0 0 0-.624.628c.01 1.288.004 2.576.004 3.864v3.864a.58.58 0 0 0 .597.623c.622-.007 1.245-.001 1.867-.005.429-.002.859.003 1.286-.02.486-.028.95-.164 1.395-.361.699-.31 1.258-.795 1.725-1.396.601-.773.907-1.652.908-2.636 0-.218-.022-.437-.046-.655a4.224 4.224 0 0 0-.4-1.398"/>
    </g>
</svg>
